G04 #@! TF.FileFunction,Copper,L2,Bot,Signal*
%FSLAX46Y46*%
G04 Gerber Fmt 4.6, Leading zero omitted, Abs format (unit mm)*
G04 Created by KiCad (PCBNEW 4.0.7) date 04/18/19 14:14:10*
%MOMM*%
%LPD*%
G01*
G04 APERTURE LIST*
%ADD10C,0.100000*%
%ADD11R,1.700000X1.700000*%
%ADD12O,1.700000X1.700000*%
%ADD13C,0.600000*%
%ADD14C,0.250000*%
%ADD15C,0.254000*%
G04 APERTURE END LIST*
D10*
D11*
X115570000Y-107950000D03*
D12*
X115570000Y-110490000D03*
X115570000Y-113030000D03*
X115570000Y-115570000D03*
X115570000Y-118110000D03*
X115570000Y-120650000D03*
X115570000Y-123190000D03*
X115570000Y-125730000D03*
X115570000Y-128270000D03*
X115570000Y-130810000D03*
X115570000Y-133350000D03*
X115570000Y-135890000D03*
D11*
X156210000Y-140970000D03*
D12*
X158750000Y-140970000D03*
X161290000Y-140970000D03*
X163830000Y-140970000D03*
X166370000Y-140970000D03*
D11*
X141541500Y-135280400D03*
D12*
X144081500Y-135280400D03*
D11*
X161290000Y-135890000D03*
D12*
X158750000Y-135890000D03*
D13*
X123393200Y-141579600D03*
X136271000Y-125857000D03*
X138049000Y-125603000D03*
X117983000Y-139573000D03*
X138176000Y-136017000D03*
X135636000Y-135890000D03*
X131318000Y-118364000D03*
X136271000Y-118491000D03*
X136245600Y-114096800D03*
X163576000Y-116789200D03*
X164439600Y-114452400D03*
X138074400Y-110591600D03*
X137515600Y-111861600D03*
X163423600Y-114401600D03*
X132181600Y-130302000D03*
X145643600Y-132334000D03*
X125933200Y-132283200D03*
X147015200Y-131470400D03*
X131267200Y-124917200D03*
X145440400Y-123647200D03*
D14*
X158750000Y-145034000D02*
X158750000Y-140970000D01*
X157683200Y-146100800D02*
X158750000Y-145034000D01*
X126288800Y-146100800D02*
X157683200Y-146100800D01*
X125831600Y-145643600D02*
X126288800Y-146100800D01*
X125831600Y-144018000D02*
X125831600Y-145643600D01*
X123393200Y-141579600D02*
X125831600Y-144018000D01*
X136271000Y-125857000D02*
X136779000Y-125349000D01*
X136779000Y-125349000D02*
X137795000Y-125349000D01*
X137795000Y-125349000D02*
X138049000Y-125603000D01*
X166370000Y-140970000D02*
X166370000Y-134620000D01*
X117983000Y-139573000D02*
X121666000Y-135890000D01*
X121666000Y-135890000D02*
X131064000Y-135890000D01*
X131064000Y-135890000D02*
X133604000Y-133350000D01*
X133654800Y-133400800D02*
X133604000Y-133350000D01*
X165150800Y-133400800D02*
X133654800Y-133400800D01*
X166370000Y-134620000D02*
X165150800Y-133400800D01*
X135763000Y-136017000D02*
X138176000Y-136017000D01*
X135636000Y-135890000D02*
X135763000Y-136017000D01*
X131826000Y-117856000D02*
X131318000Y-118364000D01*
X135636000Y-117856000D02*
X131826000Y-117856000D01*
X136271000Y-118491000D02*
X135636000Y-117856000D01*
X137058400Y-114096800D02*
X136245600Y-114096800D01*
X138176000Y-112979200D02*
X137058400Y-114096800D01*
X161188400Y-112979200D02*
X138176000Y-112979200D01*
X162153600Y-113944400D02*
X161188400Y-112979200D01*
X162153600Y-114147600D02*
X162153600Y-113944400D01*
X162763200Y-114757200D02*
X162153600Y-114147600D01*
X162763200Y-115976400D02*
X162763200Y-114757200D01*
X163576000Y-116789200D02*
X162763200Y-115976400D01*
X164439600Y-113385600D02*
X164439600Y-114452400D01*
X162560000Y-111506000D02*
X164439600Y-113385600D01*
X138988800Y-111506000D02*
X162560000Y-111506000D01*
X138074400Y-110591600D02*
X138988800Y-111506000D01*
X137871200Y-112217200D02*
X137515600Y-111861600D01*
X162153600Y-112217200D02*
X137871200Y-112217200D01*
X163271200Y-113334800D02*
X162153600Y-112217200D01*
X163271200Y-114249200D02*
X163271200Y-113334800D01*
X163423600Y-114401600D02*
X163271200Y-114249200D01*
X134112000Y-132232400D02*
X132181600Y-130302000D01*
X145542000Y-132232400D02*
X134112000Y-132232400D01*
X145643600Y-132334000D02*
X145542000Y-132232400D01*
X127050800Y-132283200D02*
X125933200Y-132283200D01*
X129794000Y-129540000D02*
X127050800Y-132283200D01*
X134366000Y-129540000D02*
X129794000Y-129540000D01*
X135991600Y-131165600D02*
X134366000Y-129540000D01*
X146710400Y-131165600D02*
X135991600Y-131165600D01*
X147015200Y-131470400D02*
X146710400Y-131165600D01*
X131267200Y-124764800D02*
X131267200Y-124917200D01*
X131572000Y-124460000D02*
X131267200Y-124764800D01*
X144627600Y-124460000D02*
X131572000Y-124460000D01*
X145440400Y-123647200D02*
X144627600Y-124460000D01*
D15*
G36*
X172144989Y-102462152D02*
X172734170Y-102855830D01*
X173127848Y-103445011D01*
X173280000Y-104209931D01*
X173280000Y-145634688D01*
X173222046Y-145547954D01*
X172409024Y-145004711D01*
X171450000Y-144813949D01*
X170490976Y-145004711D01*
X169677954Y-145547954D01*
X169134711Y-146360976D01*
X168943949Y-147320000D01*
X169134711Y-148279024D01*
X169677954Y-149092046D01*
X169764688Y-149150000D01*
X115985312Y-149150000D01*
X116072046Y-149092046D01*
X116615289Y-148279024D01*
X116806051Y-147320000D01*
X116615289Y-146360976D01*
X116072046Y-145547954D01*
X115259024Y-145004711D01*
X114300000Y-144813949D01*
X113340976Y-145004711D01*
X112527954Y-145547954D01*
X112470000Y-145634688D01*
X112470000Y-139758167D01*
X117047838Y-139758167D01*
X117189883Y-140101943D01*
X117452673Y-140365192D01*
X117796201Y-140507838D01*
X118168167Y-140508162D01*
X118511943Y-140366117D01*
X118775192Y-140103327D01*
X118917838Y-139759799D01*
X118917879Y-139712923D01*
X121980802Y-136650000D01*
X131064000Y-136650000D01*
X131354839Y-136592148D01*
X131601401Y-136427401D01*
X131953635Y-136075167D01*
X134700838Y-136075167D01*
X134842883Y-136418943D01*
X135105673Y-136682192D01*
X135449201Y-136824838D01*
X135821167Y-136825162D01*
X135937728Y-136777000D01*
X137613537Y-136777000D01*
X137645673Y-136809192D01*
X137989201Y-136951838D01*
X138361167Y-136952162D01*
X138704943Y-136810117D01*
X138968192Y-136547327D01*
X139110838Y-136203799D01*
X139111162Y-135831833D01*
X138969117Y-135488057D01*
X138706327Y-135224808D01*
X138362799Y-135082162D01*
X137990833Y-135081838D01*
X137647057Y-135223883D01*
X137613882Y-135257000D01*
X136325241Y-135257000D01*
X136166327Y-135097808D01*
X135822799Y-134955162D01*
X135450833Y-134954838D01*
X135107057Y-135096883D01*
X134843808Y-135359673D01*
X134701162Y-135703201D01*
X134700838Y-136075167D01*
X131953635Y-136075167D01*
X133868002Y-134160800D01*
X140107170Y-134160800D01*
X140095069Y-134178510D01*
X140044060Y-134430400D01*
X140044060Y-136130400D01*
X140088338Y-136365717D01*
X140227410Y-136581841D01*
X140439610Y-136726831D01*
X140691500Y-136777840D01*
X142391500Y-136777840D01*
X142626817Y-136733562D01*
X142842941Y-136594490D01*
X142987931Y-136382290D01*
X143009801Y-136274293D01*
X143314576Y-136552045D01*
X143724610Y-136721876D01*
X143954500Y-136600555D01*
X143954500Y-135407400D01*
X144208500Y-135407400D01*
X144208500Y-136600555D01*
X144438390Y-136721876D01*
X144848424Y-136552045D01*
X145276683Y-136161758D01*
X145417970Y-135860907D01*
X157265000Y-135860907D01*
X157265000Y-135919093D01*
X157378039Y-136487378D01*
X157699946Y-136969147D01*
X158181715Y-137291054D01*
X158750000Y-137404093D01*
X159318285Y-137291054D01*
X159800054Y-136969147D01*
X159827850Y-136927548D01*
X159836838Y-136975317D01*
X159975910Y-137191441D01*
X160188110Y-137336431D01*
X160440000Y-137387440D01*
X162140000Y-137387440D01*
X162375317Y-137343162D01*
X162591441Y-137204090D01*
X162736431Y-136991890D01*
X162787440Y-136740000D01*
X162787440Y-135040000D01*
X162743162Y-134804683D01*
X162604090Y-134588559D01*
X162391890Y-134443569D01*
X162140000Y-134392560D01*
X160440000Y-134392560D01*
X160204683Y-134436838D01*
X159988559Y-134575910D01*
X159843569Y-134788110D01*
X159829914Y-134855541D01*
X159800054Y-134810853D01*
X159318285Y-134488946D01*
X158750000Y-134375907D01*
X158181715Y-134488946D01*
X157699946Y-134810853D01*
X157378039Y-135292622D01*
X157265000Y-135860907D01*
X145417970Y-135860907D01*
X145522986Y-135637292D01*
X145402319Y-135407400D01*
X144208500Y-135407400D01*
X143954500Y-135407400D01*
X143934500Y-135407400D01*
X143934500Y-135153400D01*
X143954500Y-135153400D01*
X143954500Y-135133400D01*
X144208500Y-135133400D01*
X144208500Y-135153400D01*
X145402319Y-135153400D01*
X145522986Y-134923508D01*
X145276683Y-134399042D01*
X145015262Y-134160800D01*
X164835998Y-134160800D01*
X165610000Y-134934802D01*
X165610000Y-139697046D01*
X165319946Y-139890853D01*
X165100000Y-140220026D01*
X164880054Y-139890853D01*
X164398285Y-139568946D01*
X163830000Y-139455907D01*
X163261715Y-139568946D01*
X162779946Y-139890853D01*
X162560000Y-140220026D01*
X162340054Y-139890853D01*
X161858285Y-139568946D01*
X161290000Y-139455907D01*
X160721715Y-139568946D01*
X160239946Y-139890853D01*
X160020000Y-140220026D01*
X159800054Y-139890853D01*
X159318285Y-139568946D01*
X158750000Y-139455907D01*
X158181715Y-139568946D01*
X157699946Y-139890853D01*
X157672150Y-139932452D01*
X157663162Y-139884683D01*
X157524090Y-139668559D01*
X157311890Y-139523569D01*
X157060000Y-139472560D01*
X155360000Y-139472560D01*
X155124683Y-139516838D01*
X154908559Y-139655910D01*
X154763569Y-139868110D01*
X154712560Y-140120000D01*
X154712560Y-141820000D01*
X154756838Y-142055317D01*
X154895910Y-142271441D01*
X155108110Y-142416431D01*
X155360000Y-142467440D01*
X157060000Y-142467440D01*
X157295317Y-142423162D01*
X157511441Y-142284090D01*
X157656431Y-142071890D01*
X157670086Y-142004459D01*
X157699946Y-142049147D01*
X157990000Y-142242954D01*
X157990000Y-144719198D01*
X157368398Y-145340800D01*
X126603602Y-145340800D01*
X126591600Y-145328798D01*
X126591600Y-144018000D01*
X126533748Y-143727161D01*
X126533748Y-143727160D01*
X126369001Y-143480599D01*
X126314881Y-143426479D01*
X132777004Y-143426479D01*
X132957030Y-143862174D01*
X133290085Y-144195811D01*
X133725465Y-144376596D01*
X134196887Y-144377008D01*
X134632582Y-144196982D01*
X134966219Y-143863927D01*
X135147004Y-143428547D01*
X135147416Y-142957125D01*
X134967390Y-142521430D01*
X134634335Y-142187793D01*
X134198955Y-142007008D01*
X133727533Y-142006596D01*
X133291838Y-142186622D01*
X132958201Y-142519677D01*
X132777416Y-142955057D01*
X132777004Y-143426479D01*
X126314881Y-143426479D01*
X124328322Y-141439920D01*
X124328362Y-141394433D01*
X124186317Y-141050657D01*
X123923527Y-140787408D01*
X123727009Y-140705806D01*
X130260028Y-140705806D01*
X130414227Y-141078996D01*
X130699502Y-141364769D01*
X131072422Y-141519619D01*
X131476214Y-141519972D01*
X131849404Y-141365773D01*
X132135177Y-141080498D01*
X132290027Y-140707578D01*
X132290380Y-140303786D01*
X132136181Y-139930596D01*
X131850906Y-139644823D01*
X131477986Y-139489973D01*
X131074194Y-139489620D01*
X130701004Y-139643819D01*
X130415231Y-139929094D01*
X130260381Y-140302014D01*
X130260028Y-140705806D01*
X123727009Y-140705806D01*
X123579999Y-140644762D01*
X123208033Y-140644438D01*
X122864257Y-140786483D01*
X122601008Y-141049273D01*
X122458362Y-141392801D01*
X122458038Y-141764767D01*
X122600083Y-142108543D01*
X122862873Y-142371792D01*
X123206401Y-142514438D01*
X123253277Y-142514479D01*
X125071600Y-144332802D01*
X125071600Y-145643600D01*
X125129452Y-145934439D01*
X125294199Y-146181001D01*
X125751399Y-146638201D01*
X125997960Y-146802948D01*
X126046214Y-146812546D01*
X126288800Y-146860800D01*
X157683200Y-146860800D01*
X157974039Y-146802948D01*
X158220601Y-146638201D01*
X159287401Y-145571401D01*
X159452148Y-145324839D01*
X159510000Y-145034000D01*
X159510000Y-142242954D01*
X159800054Y-142049147D01*
X160020000Y-141719974D01*
X160239946Y-142049147D01*
X160721715Y-142371054D01*
X161290000Y-142484093D01*
X161858285Y-142371054D01*
X162340054Y-142049147D01*
X162560000Y-141719974D01*
X162779946Y-142049147D01*
X163261715Y-142371054D01*
X163830000Y-142484093D01*
X164398285Y-142371054D01*
X164880054Y-142049147D01*
X165100000Y-141719974D01*
X165319946Y-142049147D01*
X165801715Y-142371054D01*
X166370000Y-142484093D01*
X166938285Y-142371054D01*
X167420054Y-142049147D01*
X167741961Y-141567378D01*
X167855000Y-140999093D01*
X167855000Y-140940907D01*
X167741961Y-140372622D01*
X167420054Y-139890853D01*
X167130000Y-139697046D01*
X167130000Y-134620000D01*
X167094905Y-134443569D01*
X167072148Y-134329160D01*
X166907401Y-134082599D01*
X165688201Y-132863399D01*
X165441639Y-132698652D01*
X165150800Y-132640800D01*
X146528609Y-132640800D01*
X146578438Y-132520799D01*
X146578629Y-132301523D01*
X146828401Y-132405238D01*
X147200367Y-132405562D01*
X147544143Y-132263517D01*
X147807392Y-132000727D01*
X147950038Y-131657199D01*
X147950362Y-131285233D01*
X147808317Y-130941457D01*
X147545527Y-130678208D01*
X147201999Y-130535562D01*
X147109038Y-130535481D01*
X147001239Y-130463452D01*
X146710400Y-130405600D01*
X136306402Y-130405600D01*
X134903401Y-129002599D01*
X134656839Y-128837852D01*
X134366000Y-128780000D01*
X129794000Y-128780000D01*
X129503161Y-128837852D01*
X129256599Y-129002599D01*
X126735998Y-131523200D01*
X126495663Y-131523200D01*
X126463527Y-131491008D01*
X126119999Y-131348362D01*
X125748033Y-131348038D01*
X125404257Y-131490083D01*
X125141008Y-131752873D01*
X124998362Y-132096401D01*
X124998038Y-132468367D01*
X125140083Y-132812143D01*
X125402873Y-133075392D01*
X125746401Y-133218038D01*
X126118367Y-133218362D01*
X126462143Y-133076317D01*
X126495318Y-133043200D01*
X127050800Y-133043200D01*
X127341639Y-132985348D01*
X127588201Y-132820601D01*
X130108802Y-130300000D01*
X131246601Y-130300000D01*
X131246438Y-130487167D01*
X131388483Y-130830943D01*
X131651273Y-131094192D01*
X131994801Y-131236838D01*
X132041677Y-131236879D01*
X133429507Y-132624709D01*
X133361414Y-132638254D01*
X133313160Y-132647852D01*
X133066599Y-132812599D01*
X130749198Y-135130000D01*
X121666000Y-135130000D01*
X121375161Y-135187852D01*
X121128599Y-135352599D01*
X117843320Y-138637878D01*
X117797833Y-138637838D01*
X117454057Y-138779883D01*
X117190808Y-139042673D01*
X117048162Y-139386201D01*
X117047838Y-139758167D01*
X112470000Y-139758167D01*
X112470000Y-136246890D01*
X114128524Y-136246890D01*
X114298355Y-136656924D01*
X114688642Y-137085183D01*
X115213108Y-137331486D01*
X115443000Y-137210819D01*
X115443000Y-136017000D01*
X115697000Y-136017000D01*
X115697000Y-137210819D01*
X115926892Y-137331486D01*
X116451358Y-137085183D01*
X116841645Y-136656924D01*
X117011476Y-136246890D01*
X116890155Y-136017000D01*
X115697000Y-136017000D01*
X115443000Y-136017000D01*
X114249845Y-136017000D01*
X114128524Y-136246890D01*
X112470000Y-136246890D01*
X112470000Y-123190000D01*
X114055907Y-123190000D01*
X114168946Y-123758285D01*
X114490853Y-124240054D01*
X114820026Y-124460000D01*
X114490853Y-124679946D01*
X114168946Y-125161715D01*
X114055907Y-125730000D01*
X114168946Y-126298285D01*
X114490853Y-126780054D01*
X114820026Y-127000000D01*
X114490853Y-127219946D01*
X114168946Y-127701715D01*
X114055907Y-128270000D01*
X114168946Y-128838285D01*
X114490853Y-129320054D01*
X114820026Y-129540000D01*
X114490853Y-129759946D01*
X114168946Y-130241715D01*
X114055907Y-130810000D01*
X114168946Y-131378285D01*
X114490853Y-131860054D01*
X114820026Y-132080000D01*
X114490853Y-132299946D01*
X114168946Y-132781715D01*
X114055907Y-133350000D01*
X114168946Y-133918285D01*
X114490853Y-134400054D01*
X114831553Y-134627702D01*
X114688642Y-134694817D01*
X114298355Y-135123076D01*
X114128524Y-135533110D01*
X114249845Y-135763000D01*
X115443000Y-135763000D01*
X115443000Y-135743000D01*
X115697000Y-135743000D01*
X115697000Y-135763000D01*
X116890155Y-135763000D01*
X117011476Y-135533110D01*
X116841645Y-135123076D01*
X116451358Y-134694817D01*
X116308447Y-134627702D01*
X116649147Y-134400054D01*
X116971054Y-133918285D01*
X117084093Y-133350000D01*
X116971054Y-132781715D01*
X116649147Y-132299946D01*
X116319974Y-132080000D01*
X116649147Y-131860054D01*
X116971054Y-131378285D01*
X117084093Y-130810000D01*
X116971054Y-130241715D01*
X116649147Y-129759946D01*
X116319974Y-129540000D01*
X116649147Y-129320054D01*
X116971054Y-128838285D01*
X117084093Y-128270000D01*
X116971054Y-127701715D01*
X116649147Y-127219946D01*
X116319974Y-127000000D01*
X116649147Y-126780054D01*
X116971054Y-126298285D01*
X117084093Y-125730000D01*
X116971054Y-125161715D01*
X116931400Y-125102367D01*
X130332038Y-125102367D01*
X130474083Y-125446143D01*
X130736873Y-125709392D01*
X131080401Y-125852038D01*
X131452367Y-125852362D01*
X131796143Y-125710317D01*
X132059392Y-125447527D01*
X132153870Y-125220000D01*
X135585667Y-125220000D01*
X135478808Y-125326673D01*
X135336162Y-125670201D01*
X135335838Y-126042167D01*
X135477883Y-126385943D01*
X135740673Y-126649192D01*
X136084201Y-126791838D01*
X136456167Y-126792162D01*
X136799943Y-126650117D01*
X137063192Y-126387327D01*
X137178764Y-126109000D01*
X137246403Y-126109000D01*
X137255883Y-126131943D01*
X137518673Y-126395192D01*
X137862201Y-126537838D01*
X138234167Y-126538162D01*
X138577943Y-126396117D01*
X138841192Y-126133327D01*
X138983838Y-125789799D01*
X138984162Y-125417833D01*
X138902419Y-125220000D01*
X144627600Y-125220000D01*
X144918439Y-125162148D01*
X145165001Y-124997401D01*
X145580080Y-124582322D01*
X145625567Y-124582362D01*
X145969343Y-124440317D01*
X146232592Y-124177527D01*
X146375238Y-123833999D01*
X146375562Y-123462033D01*
X146233517Y-123118257D01*
X145970727Y-122855008D01*
X145627199Y-122712362D01*
X145255233Y-122712038D01*
X144911457Y-122854083D01*
X144648208Y-123116873D01*
X144505562Y-123460401D01*
X144505521Y-123507277D01*
X144312798Y-123700000D01*
X131572000Y-123700000D01*
X131281160Y-123757852D01*
X131034599Y-123922599D01*
X130899907Y-124057291D01*
X130738257Y-124124083D01*
X130475008Y-124386873D01*
X130332362Y-124730401D01*
X130332038Y-125102367D01*
X116931400Y-125102367D01*
X116649147Y-124679946D01*
X116319974Y-124460000D01*
X116649147Y-124240054D01*
X116971054Y-123758285D01*
X117084093Y-123190000D01*
X116971054Y-122621715D01*
X116649147Y-122139946D01*
X116308447Y-121912298D01*
X116451358Y-121845183D01*
X116841645Y-121416924D01*
X117011476Y-121006890D01*
X116890155Y-120777000D01*
X115697000Y-120777000D01*
X115697000Y-120797000D01*
X115443000Y-120797000D01*
X115443000Y-120777000D01*
X114249845Y-120777000D01*
X114128524Y-121006890D01*
X114298355Y-121416924D01*
X114688642Y-121845183D01*
X114831553Y-121912298D01*
X114490853Y-122139946D01*
X114168946Y-122621715D01*
X114055907Y-123190000D01*
X112470000Y-123190000D01*
X112470000Y-118466890D01*
X114128524Y-118466890D01*
X114298355Y-118876924D01*
X114688642Y-119305183D01*
X114847954Y-119380000D01*
X114688642Y-119454817D01*
X114298355Y-119883076D01*
X114128524Y-120293110D01*
X114249845Y-120523000D01*
X115443000Y-120523000D01*
X115443000Y-118237000D01*
X115697000Y-118237000D01*
X115697000Y-120523000D01*
X116890155Y-120523000D01*
X117011476Y-120293110D01*
X116841645Y-119883076D01*
X116451358Y-119454817D01*
X116292046Y-119380000D01*
X116451358Y-119305183D01*
X116841645Y-118876924D01*
X117011476Y-118466890D01*
X116890155Y-118237000D01*
X115697000Y-118237000D01*
X115443000Y-118237000D01*
X114249845Y-118237000D01*
X114128524Y-118466890D01*
X112470000Y-118466890D01*
X112470000Y-110490000D01*
X114055907Y-110490000D01*
X114168946Y-111058285D01*
X114490853Y-111540054D01*
X114820026Y-111760000D01*
X114490853Y-111979946D01*
X114168946Y-112461715D01*
X114055907Y-113030000D01*
X114168946Y-113598285D01*
X114490853Y-114080054D01*
X114820026Y-114300000D01*
X114490853Y-114519946D01*
X114168946Y-115001715D01*
X114055907Y-115570000D01*
X114168946Y-116138285D01*
X114490853Y-116620054D01*
X114831553Y-116847702D01*
X114688642Y-116914817D01*
X114298355Y-117343076D01*
X114128524Y-117753110D01*
X114249845Y-117983000D01*
X115443000Y-117983000D01*
X115443000Y-117963000D01*
X115697000Y-117963000D01*
X115697000Y-117983000D01*
X116890155Y-117983000D01*
X117011476Y-117753110D01*
X116841645Y-117343076D01*
X116451358Y-116914817D01*
X116308447Y-116847702D01*
X116649147Y-116620054D01*
X116971054Y-116138285D01*
X117084093Y-115570000D01*
X116971054Y-115001715D01*
X116649147Y-114519946D01*
X116319974Y-114300000D01*
X116346962Y-114281967D01*
X135310438Y-114281967D01*
X135452483Y-114625743D01*
X135715273Y-114888992D01*
X136058801Y-115031638D01*
X136430767Y-115031962D01*
X136774543Y-114889917D01*
X136807718Y-114856800D01*
X137058400Y-114856800D01*
X137349239Y-114798948D01*
X137595801Y-114634201D01*
X138490802Y-113739200D01*
X160873598Y-113739200D01*
X161421311Y-114286913D01*
X161451452Y-114438439D01*
X161616199Y-114685001D01*
X162003200Y-115072002D01*
X162003200Y-115976400D01*
X162061052Y-116267239D01*
X162225799Y-116513801D01*
X162640878Y-116928880D01*
X162640838Y-116974367D01*
X162782883Y-117318143D01*
X163045673Y-117581392D01*
X163389201Y-117724038D01*
X163761167Y-117724362D01*
X164104943Y-117582317D01*
X164368192Y-117319527D01*
X164510838Y-116975999D01*
X164511162Y-116604033D01*
X164369117Y-116260257D01*
X164106327Y-115997008D01*
X163762799Y-115854362D01*
X163715923Y-115854321D01*
X163523200Y-115661598D01*
X163523200Y-115336687D01*
X163608767Y-115336762D01*
X163886660Y-115221939D01*
X163909273Y-115244592D01*
X164252801Y-115387238D01*
X164624767Y-115387562D01*
X164968543Y-115245517D01*
X165231792Y-114982727D01*
X165374438Y-114639199D01*
X165374762Y-114267233D01*
X165232717Y-113923457D01*
X165199600Y-113890282D01*
X165199600Y-113385600D01*
X165141748Y-113094761D01*
X164977001Y-112848199D01*
X163097401Y-110968599D01*
X162850839Y-110803852D01*
X162560000Y-110746000D01*
X139303602Y-110746000D01*
X139009522Y-110451920D01*
X139009562Y-110406433D01*
X138867517Y-110062657D01*
X138604727Y-109799408D01*
X138261199Y-109656762D01*
X137889233Y-109656438D01*
X137545457Y-109798483D01*
X137282208Y-110061273D01*
X137139562Y-110404801D01*
X137139238Y-110776767D01*
X137219944Y-110972091D01*
X136986657Y-111068483D01*
X136723408Y-111331273D01*
X136580762Y-111674801D01*
X136580438Y-112046767D01*
X136722483Y-112390543D01*
X136985273Y-112653792D01*
X137297117Y-112783281D01*
X136775830Y-113304568D01*
X136432399Y-113161962D01*
X136060433Y-113161638D01*
X135716657Y-113303683D01*
X135453408Y-113566473D01*
X135310762Y-113910001D01*
X135310438Y-114281967D01*
X116346962Y-114281967D01*
X116649147Y-114080054D01*
X116971054Y-113598285D01*
X117084093Y-113030000D01*
X116971054Y-112461715D01*
X116649147Y-111979946D01*
X116319974Y-111760000D01*
X116649147Y-111540054D01*
X116971054Y-111058285D01*
X117084093Y-110490000D01*
X116971054Y-109921715D01*
X116649147Y-109439946D01*
X116605223Y-109410597D01*
X116779698Y-109338327D01*
X116958327Y-109159699D01*
X117055000Y-108926310D01*
X117055000Y-108235750D01*
X116896250Y-108077000D01*
X115697000Y-108077000D01*
X115697000Y-108097000D01*
X115443000Y-108097000D01*
X115443000Y-108077000D01*
X114243750Y-108077000D01*
X114085000Y-108235750D01*
X114085000Y-108926310D01*
X114181673Y-109159699D01*
X114360302Y-109338327D01*
X114534777Y-109410597D01*
X114490853Y-109439946D01*
X114168946Y-109921715D01*
X114055907Y-110490000D01*
X112470000Y-110490000D01*
X112470000Y-105825312D01*
X112527954Y-105912046D01*
X113340976Y-106455289D01*
X114279918Y-106642056D01*
X114181673Y-106740301D01*
X114085000Y-106973690D01*
X114085000Y-107664250D01*
X114243750Y-107823000D01*
X115443000Y-107823000D01*
X115443000Y-106623750D01*
X115697000Y-106623750D01*
X115697000Y-107823000D01*
X116896250Y-107823000D01*
X117055000Y-107664250D01*
X117055000Y-106973690D01*
X116958327Y-106740301D01*
X116779698Y-106561673D01*
X116546309Y-106465000D01*
X115855750Y-106465000D01*
X115697000Y-106623750D01*
X115443000Y-106623750D01*
X115284250Y-106465000D01*
X115210204Y-106465000D01*
X115259024Y-106455289D01*
X116072046Y-105912046D01*
X116615289Y-105099024D01*
X116806051Y-104140000D01*
X116615289Y-103180976D01*
X116072046Y-102367954D01*
X115985312Y-102310000D01*
X171380069Y-102310000D01*
X172144989Y-102462152D01*
X172144989Y-102462152D01*
G37*
X172144989Y-102462152D02*
X172734170Y-102855830D01*
X173127848Y-103445011D01*
X173280000Y-104209931D01*
X173280000Y-145634688D01*
X173222046Y-145547954D01*
X172409024Y-145004711D01*
X171450000Y-144813949D01*
X170490976Y-145004711D01*
X169677954Y-145547954D01*
X169134711Y-146360976D01*
X168943949Y-147320000D01*
X169134711Y-148279024D01*
X169677954Y-149092046D01*
X169764688Y-149150000D01*
X115985312Y-149150000D01*
X116072046Y-149092046D01*
X116615289Y-148279024D01*
X116806051Y-147320000D01*
X116615289Y-146360976D01*
X116072046Y-145547954D01*
X115259024Y-145004711D01*
X114300000Y-144813949D01*
X113340976Y-145004711D01*
X112527954Y-145547954D01*
X112470000Y-145634688D01*
X112470000Y-139758167D01*
X117047838Y-139758167D01*
X117189883Y-140101943D01*
X117452673Y-140365192D01*
X117796201Y-140507838D01*
X118168167Y-140508162D01*
X118511943Y-140366117D01*
X118775192Y-140103327D01*
X118917838Y-139759799D01*
X118917879Y-139712923D01*
X121980802Y-136650000D01*
X131064000Y-136650000D01*
X131354839Y-136592148D01*
X131601401Y-136427401D01*
X131953635Y-136075167D01*
X134700838Y-136075167D01*
X134842883Y-136418943D01*
X135105673Y-136682192D01*
X135449201Y-136824838D01*
X135821167Y-136825162D01*
X135937728Y-136777000D01*
X137613537Y-136777000D01*
X137645673Y-136809192D01*
X137989201Y-136951838D01*
X138361167Y-136952162D01*
X138704943Y-136810117D01*
X138968192Y-136547327D01*
X139110838Y-136203799D01*
X139111162Y-135831833D01*
X138969117Y-135488057D01*
X138706327Y-135224808D01*
X138362799Y-135082162D01*
X137990833Y-135081838D01*
X137647057Y-135223883D01*
X137613882Y-135257000D01*
X136325241Y-135257000D01*
X136166327Y-135097808D01*
X135822799Y-134955162D01*
X135450833Y-134954838D01*
X135107057Y-135096883D01*
X134843808Y-135359673D01*
X134701162Y-135703201D01*
X134700838Y-136075167D01*
X131953635Y-136075167D01*
X133868002Y-134160800D01*
X140107170Y-134160800D01*
X140095069Y-134178510D01*
X140044060Y-134430400D01*
X140044060Y-136130400D01*
X140088338Y-136365717D01*
X140227410Y-136581841D01*
X140439610Y-136726831D01*
X140691500Y-136777840D01*
X142391500Y-136777840D01*
X142626817Y-136733562D01*
X142842941Y-136594490D01*
X142987931Y-136382290D01*
X143009801Y-136274293D01*
X143314576Y-136552045D01*
X143724610Y-136721876D01*
X143954500Y-136600555D01*
X143954500Y-135407400D01*
X144208500Y-135407400D01*
X144208500Y-136600555D01*
X144438390Y-136721876D01*
X144848424Y-136552045D01*
X145276683Y-136161758D01*
X145417970Y-135860907D01*
X157265000Y-135860907D01*
X157265000Y-135919093D01*
X157378039Y-136487378D01*
X157699946Y-136969147D01*
X158181715Y-137291054D01*
X158750000Y-137404093D01*
X159318285Y-137291054D01*
X159800054Y-136969147D01*
X159827850Y-136927548D01*
X159836838Y-136975317D01*
X159975910Y-137191441D01*
X160188110Y-137336431D01*
X160440000Y-137387440D01*
X162140000Y-137387440D01*
X162375317Y-137343162D01*
X162591441Y-137204090D01*
X162736431Y-136991890D01*
X162787440Y-136740000D01*
X162787440Y-135040000D01*
X162743162Y-134804683D01*
X162604090Y-134588559D01*
X162391890Y-134443569D01*
X162140000Y-134392560D01*
X160440000Y-134392560D01*
X160204683Y-134436838D01*
X159988559Y-134575910D01*
X159843569Y-134788110D01*
X159829914Y-134855541D01*
X159800054Y-134810853D01*
X159318285Y-134488946D01*
X158750000Y-134375907D01*
X158181715Y-134488946D01*
X157699946Y-134810853D01*
X157378039Y-135292622D01*
X157265000Y-135860907D01*
X145417970Y-135860907D01*
X145522986Y-135637292D01*
X145402319Y-135407400D01*
X144208500Y-135407400D01*
X143954500Y-135407400D01*
X143934500Y-135407400D01*
X143934500Y-135153400D01*
X143954500Y-135153400D01*
X143954500Y-135133400D01*
X144208500Y-135133400D01*
X144208500Y-135153400D01*
X145402319Y-135153400D01*
X145522986Y-134923508D01*
X145276683Y-134399042D01*
X145015262Y-134160800D01*
X164835998Y-134160800D01*
X165610000Y-134934802D01*
X165610000Y-139697046D01*
X165319946Y-139890853D01*
X165100000Y-140220026D01*
X164880054Y-139890853D01*
X164398285Y-139568946D01*
X163830000Y-139455907D01*
X163261715Y-139568946D01*
X162779946Y-139890853D01*
X162560000Y-140220026D01*
X162340054Y-139890853D01*
X161858285Y-139568946D01*
X161290000Y-139455907D01*
X160721715Y-139568946D01*
X160239946Y-139890853D01*
X160020000Y-140220026D01*
X159800054Y-139890853D01*
X159318285Y-139568946D01*
X158750000Y-139455907D01*
X158181715Y-139568946D01*
X157699946Y-139890853D01*
X157672150Y-139932452D01*
X157663162Y-139884683D01*
X157524090Y-139668559D01*
X157311890Y-139523569D01*
X157060000Y-139472560D01*
X155360000Y-139472560D01*
X155124683Y-139516838D01*
X154908559Y-139655910D01*
X154763569Y-139868110D01*
X154712560Y-140120000D01*
X154712560Y-141820000D01*
X154756838Y-142055317D01*
X154895910Y-142271441D01*
X155108110Y-142416431D01*
X155360000Y-142467440D01*
X157060000Y-142467440D01*
X157295317Y-142423162D01*
X157511441Y-142284090D01*
X157656431Y-142071890D01*
X157670086Y-142004459D01*
X157699946Y-142049147D01*
X157990000Y-142242954D01*
X157990000Y-144719198D01*
X157368398Y-145340800D01*
X126603602Y-145340800D01*
X126591600Y-145328798D01*
X126591600Y-144018000D01*
X126533748Y-143727161D01*
X126533748Y-143727160D01*
X126369001Y-143480599D01*
X126314881Y-143426479D01*
X132777004Y-143426479D01*
X132957030Y-143862174D01*
X133290085Y-144195811D01*
X133725465Y-144376596D01*
X134196887Y-144377008D01*
X134632582Y-144196982D01*
X134966219Y-143863927D01*
X135147004Y-143428547D01*
X135147416Y-142957125D01*
X134967390Y-142521430D01*
X134634335Y-142187793D01*
X134198955Y-142007008D01*
X133727533Y-142006596D01*
X133291838Y-142186622D01*
X132958201Y-142519677D01*
X132777416Y-142955057D01*
X132777004Y-143426479D01*
X126314881Y-143426479D01*
X124328322Y-141439920D01*
X124328362Y-141394433D01*
X124186317Y-141050657D01*
X123923527Y-140787408D01*
X123727009Y-140705806D01*
X130260028Y-140705806D01*
X130414227Y-141078996D01*
X130699502Y-141364769D01*
X131072422Y-141519619D01*
X131476214Y-141519972D01*
X131849404Y-141365773D01*
X132135177Y-141080498D01*
X132290027Y-140707578D01*
X132290380Y-140303786D01*
X132136181Y-139930596D01*
X131850906Y-139644823D01*
X131477986Y-139489973D01*
X131074194Y-139489620D01*
X130701004Y-139643819D01*
X130415231Y-139929094D01*
X130260381Y-140302014D01*
X130260028Y-140705806D01*
X123727009Y-140705806D01*
X123579999Y-140644762D01*
X123208033Y-140644438D01*
X122864257Y-140786483D01*
X122601008Y-141049273D01*
X122458362Y-141392801D01*
X122458038Y-141764767D01*
X122600083Y-142108543D01*
X122862873Y-142371792D01*
X123206401Y-142514438D01*
X123253277Y-142514479D01*
X125071600Y-144332802D01*
X125071600Y-145643600D01*
X125129452Y-145934439D01*
X125294199Y-146181001D01*
X125751399Y-146638201D01*
X125997960Y-146802948D01*
X126046214Y-146812546D01*
X126288800Y-146860800D01*
X157683200Y-146860800D01*
X157974039Y-146802948D01*
X158220601Y-146638201D01*
X159287401Y-145571401D01*
X159452148Y-145324839D01*
X159510000Y-145034000D01*
X159510000Y-142242954D01*
X159800054Y-142049147D01*
X160020000Y-141719974D01*
X160239946Y-142049147D01*
X160721715Y-142371054D01*
X161290000Y-142484093D01*
X161858285Y-142371054D01*
X162340054Y-142049147D01*
X162560000Y-141719974D01*
X162779946Y-142049147D01*
X163261715Y-142371054D01*
X163830000Y-142484093D01*
X164398285Y-142371054D01*
X164880054Y-142049147D01*
X165100000Y-141719974D01*
X165319946Y-142049147D01*
X165801715Y-142371054D01*
X166370000Y-142484093D01*
X166938285Y-142371054D01*
X167420054Y-142049147D01*
X167741961Y-141567378D01*
X167855000Y-140999093D01*
X167855000Y-140940907D01*
X167741961Y-140372622D01*
X167420054Y-139890853D01*
X167130000Y-139697046D01*
X167130000Y-134620000D01*
X167094905Y-134443569D01*
X167072148Y-134329160D01*
X166907401Y-134082599D01*
X165688201Y-132863399D01*
X165441639Y-132698652D01*
X165150800Y-132640800D01*
X146528609Y-132640800D01*
X146578438Y-132520799D01*
X146578629Y-132301523D01*
X146828401Y-132405238D01*
X147200367Y-132405562D01*
X147544143Y-132263517D01*
X147807392Y-132000727D01*
X147950038Y-131657199D01*
X147950362Y-131285233D01*
X147808317Y-130941457D01*
X147545527Y-130678208D01*
X147201999Y-130535562D01*
X147109038Y-130535481D01*
X147001239Y-130463452D01*
X146710400Y-130405600D01*
X136306402Y-130405600D01*
X134903401Y-129002599D01*
X134656839Y-128837852D01*
X134366000Y-128780000D01*
X129794000Y-128780000D01*
X129503161Y-128837852D01*
X129256599Y-129002599D01*
X126735998Y-131523200D01*
X126495663Y-131523200D01*
X126463527Y-131491008D01*
X126119999Y-131348362D01*
X125748033Y-131348038D01*
X125404257Y-131490083D01*
X125141008Y-131752873D01*
X124998362Y-132096401D01*
X124998038Y-132468367D01*
X125140083Y-132812143D01*
X125402873Y-133075392D01*
X125746401Y-133218038D01*
X126118367Y-133218362D01*
X126462143Y-133076317D01*
X126495318Y-133043200D01*
X127050800Y-133043200D01*
X127341639Y-132985348D01*
X127588201Y-132820601D01*
X130108802Y-130300000D01*
X131246601Y-130300000D01*
X131246438Y-130487167D01*
X131388483Y-130830943D01*
X131651273Y-131094192D01*
X131994801Y-131236838D01*
X132041677Y-131236879D01*
X133429507Y-132624709D01*
X133361414Y-132638254D01*
X133313160Y-132647852D01*
X133066599Y-132812599D01*
X130749198Y-135130000D01*
X121666000Y-135130000D01*
X121375161Y-135187852D01*
X121128599Y-135352599D01*
X117843320Y-138637878D01*
X117797833Y-138637838D01*
X117454057Y-138779883D01*
X117190808Y-139042673D01*
X117048162Y-139386201D01*
X117047838Y-139758167D01*
X112470000Y-139758167D01*
X112470000Y-136246890D01*
X114128524Y-136246890D01*
X114298355Y-136656924D01*
X114688642Y-137085183D01*
X115213108Y-137331486D01*
X115443000Y-137210819D01*
X115443000Y-136017000D01*
X115697000Y-136017000D01*
X115697000Y-137210819D01*
X115926892Y-137331486D01*
X116451358Y-137085183D01*
X116841645Y-136656924D01*
X117011476Y-136246890D01*
X116890155Y-136017000D01*
X115697000Y-136017000D01*
X115443000Y-136017000D01*
X114249845Y-136017000D01*
X114128524Y-136246890D01*
X112470000Y-136246890D01*
X112470000Y-123190000D01*
X114055907Y-123190000D01*
X114168946Y-123758285D01*
X114490853Y-124240054D01*
X114820026Y-124460000D01*
X114490853Y-124679946D01*
X114168946Y-125161715D01*
X114055907Y-125730000D01*
X114168946Y-126298285D01*
X114490853Y-126780054D01*
X114820026Y-127000000D01*
X114490853Y-127219946D01*
X114168946Y-127701715D01*
X114055907Y-128270000D01*
X114168946Y-128838285D01*
X114490853Y-129320054D01*
X114820026Y-129540000D01*
X114490853Y-129759946D01*
X114168946Y-130241715D01*
X114055907Y-130810000D01*
X114168946Y-131378285D01*
X114490853Y-131860054D01*
X114820026Y-132080000D01*
X114490853Y-132299946D01*
X114168946Y-132781715D01*
X114055907Y-133350000D01*
X114168946Y-133918285D01*
X114490853Y-134400054D01*
X114831553Y-134627702D01*
X114688642Y-134694817D01*
X114298355Y-135123076D01*
X114128524Y-135533110D01*
X114249845Y-135763000D01*
X115443000Y-135763000D01*
X115443000Y-135743000D01*
X115697000Y-135743000D01*
X115697000Y-135763000D01*
X116890155Y-135763000D01*
X117011476Y-135533110D01*
X116841645Y-135123076D01*
X116451358Y-134694817D01*
X116308447Y-134627702D01*
X116649147Y-134400054D01*
X116971054Y-133918285D01*
X117084093Y-133350000D01*
X116971054Y-132781715D01*
X116649147Y-132299946D01*
X116319974Y-132080000D01*
X116649147Y-131860054D01*
X116971054Y-131378285D01*
X117084093Y-130810000D01*
X116971054Y-130241715D01*
X116649147Y-129759946D01*
X116319974Y-129540000D01*
X116649147Y-129320054D01*
X116971054Y-128838285D01*
X117084093Y-128270000D01*
X116971054Y-127701715D01*
X116649147Y-127219946D01*
X116319974Y-127000000D01*
X116649147Y-126780054D01*
X116971054Y-126298285D01*
X117084093Y-125730000D01*
X116971054Y-125161715D01*
X116931400Y-125102367D01*
X130332038Y-125102367D01*
X130474083Y-125446143D01*
X130736873Y-125709392D01*
X131080401Y-125852038D01*
X131452367Y-125852362D01*
X131796143Y-125710317D01*
X132059392Y-125447527D01*
X132153870Y-125220000D01*
X135585667Y-125220000D01*
X135478808Y-125326673D01*
X135336162Y-125670201D01*
X135335838Y-126042167D01*
X135477883Y-126385943D01*
X135740673Y-126649192D01*
X136084201Y-126791838D01*
X136456167Y-126792162D01*
X136799943Y-126650117D01*
X137063192Y-126387327D01*
X137178764Y-126109000D01*
X137246403Y-126109000D01*
X137255883Y-126131943D01*
X137518673Y-126395192D01*
X137862201Y-126537838D01*
X138234167Y-126538162D01*
X138577943Y-126396117D01*
X138841192Y-126133327D01*
X138983838Y-125789799D01*
X138984162Y-125417833D01*
X138902419Y-125220000D01*
X144627600Y-125220000D01*
X144918439Y-125162148D01*
X145165001Y-124997401D01*
X145580080Y-124582322D01*
X145625567Y-124582362D01*
X145969343Y-124440317D01*
X146232592Y-124177527D01*
X146375238Y-123833999D01*
X146375562Y-123462033D01*
X146233517Y-123118257D01*
X145970727Y-122855008D01*
X145627199Y-122712362D01*
X145255233Y-122712038D01*
X144911457Y-122854083D01*
X144648208Y-123116873D01*
X144505562Y-123460401D01*
X144505521Y-123507277D01*
X144312798Y-123700000D01*
X131572000Y-123700000D01*
X131281160Y-123757852D01*
X131034599Y-123922599D01*
X130899907Y-124057291D01*
X130738257Y-124124083D01*
X130475008Y-124386873D01*
X130332362Y-124730401D01*
X130332038Y-125102367D01*
X116931400Y-125102367D01*
X116649147Y-124679946D01*
X116319974Y-124460000D01*
X116649147Y-124240054D01*
X116971054Y-123758285D01*
X117084093Y-123190000D01*
X116971054Y-122621715D01*
X116649147Y-122139946D01*
X116308447Y-121912298D01*
X116451358Y-121845183D01*
X116841645Y-121416924D01*
X117011476Y-121006890D01*
X116890155Y-120777000D01*
X115697000Y-120777000D01*
X115697000Y-120797000D01*
X115443000Y-120797000D01*
X115443000Y-120777000D01*
X114249845Y-120777000D01*
X114128524Y-121006890D01*
X114298355Y-121416924D01*
X114688642Y-121845183D01*
X114831553Y-121912298D01*
X114490853Y-122139946D01*
X114168946Y-122621715D01*
X114055907Y-123190000D01*
X112470000Y-123190000D01*
X112470000Y-118466890D01*
X114128524Y-118466890D01*
X114298355Y-118876924D01*
X114688642Y-119305183D01*
X114847954Y-119380000D01*
X114688642Y-119454817D01*
X114298355Y-119883076D01*
X114128524Y-120293110D01*
X114249845Y-120523000D01*
X115443000Y-120523000D01*
X115443000Y-118237000D01*
X115697000Y-118237000D01*
X115697000Y-120523000D01*
X116890155Y-120523000D01*
X117011476Y-120293110D01*
X116841645Y-119883076D01*
X116451358Y-119454817D01*
X116292046Y-119380000D01*
X116451358Y-119305183D01*
X116841645Y-118876924D01*
X117011476Y-118466890D01*
X116890155Y-118237000D01*
X115697000Y-118237000D01*
X115443000Y-118237000D01*
X114249845Y-118237000D01*
X114128524Y-118466890D01*
X112470000Y-118466890D01*
X112470000Y-110490000D01*
X114055907Y-110490000D01*
X114168946Y-111058285D01*
X114490853Y-111540054D01*
X114820026Y-111760000D01*
X114490853Y-111979946D01*
X114168946Y-112461715D01*
X114055907Y-113030000D01*
X114168946Y-113598285D01*
X114490853Y-114080054D01*
X114820026Y-114300000D01*
X114490853Y-114519946D01*
X114168946Y-115001715D01*
X114055907Y-115570000D01*
X114168946Y-116138285D01*
X114490853Y-116620054D01*
X114831553Y-116847702D01*
X114688642Y-116914817D01*
X114298355Y-117343076D01*
X114128524Y-117753110D01*
X114249845Y-117983000D01*
X115443000Y-117983000D01*
X115443000Y-117963000D01*
X115697000Y-117963000D01*
X115697000Y-117983000D01*
X116890155Y-117983000D01*
X117011476Y-117753110D01*
X116841645Y-117343076D01*
X116451358Y-116914817D01*
X116308447Y-116847702D01*
X116649147Y-116620054D01*
X116971054Y-116138285D01*
X117084093Y-115570000D01*
X116971054Y-115001715D01*
X116649147Y-114519946D01*
X116319974Y-114300000D01*
X116346962Y-114281967D01*
X135310438Y-114281967D01*
X135452483Y-114625743D01*
X135715273Y-114888992D01*
X136058801Y-115031638D01*
X136430767Y-115031962D01*
X136774543Y-114889917D01*
X136807718Y-114856800D01*
X137058400Y-114856800D01*
X137349239Y-114798948D01*
X137595801Y-114634201D01*
X138490802Y-113739200D01*
X160873598Y-113739200D01*
X161421311Y-114286913D01*
X161451452Y-114438439D01*
X161616199Y-114685001D01*
X162003200Y-115072002D01*
X162003200Y-115976400D01*
X162061052Y-116267239D01*
X162225799Y-116513801D01*
X162640878Y-116928880D01*
X162640838Y-116974367D01*
X162782883Y-117318143D01*
X163045673Y-117581392D01*
X163389201Y-117724038D01*
X163761167Y-117724362D01*
X164104943Y-117582317D01*
X164368192Y-117319527D01*
X164510838Y-116975999D01*
X164511162Y-116604033D01*
X164369117Y-116260257D01*
X164106327Y-115997008D01*
X163762799Y-115854362D01*
X163715923Y-115854321D01*
X163523200Y-115661598D01*
X163523200Y-115336687D01*
X163608767Y-115336762D01*
X163886660Y-115221939D01*
X163909273Y-115244592D01*
X164252801Y-115387238D01*
X164624767Y-115387562D01*
X164968543Y-115245517D01*
X165231792Y-114982727D01*
X165374438Y-114639199D01*
X165374762Y-114267233D01*
X165232717Y-113923457D01*
X165199600Y-113890282D01*
X165199600Y-113385600D01*
X165141748Y-113094761D01*
X164977001Y-112848199D01*
X163097401Y-110968599D01*
X162850839Y-110803852D01*
X162560000Y-110746000D01*
X139303602Y-110746000D01*
X139009522Y-110451920D01*
X139009562Y-110406433D01*
X138867517Y-110062657D01*
X138604727Y-109799408D01*
X138261199Y-109656762D01*
X137889233Y-109656438D01*
X137545457Y-109798483D01*
X137282208Y-110061273D01*
X137139562Y-110404801D01*
X137139238Y-110776767D01*
X137219944Y-110972091D01*
X136986657Y-111068483D01*
X136723408Y-111331273D01*
X136580762Y-111674801D01*
X136580438Y-112046767D01*
X136722483Y-112390543D01*
X136985273Y-112653792D01*
X137297117Y-112783281D01*
X136775830Y-113304568D01*
X136432399Y-113161962D01*
X136060433Y-113161638D01*
X135716657Y-113303683D01*
X135453408Y-113566473D01*
X135310762Y-113910001D01*
X135310438Y-114281967D01*
X116346962Y-114281967D01*
X116649147Y-114080054D01*
X116971054Y-113598285D01*
X117084093Y-113030000D01*
X116971054Y-112461715D01*
X116649147Y-111979946D01*
X116319974Y-111760000D01*
X116649147Y-111540054D01*
X116971054Y-111058285D01*
X117084093Y-110490000D01*
X116971054Y-109921715D01*
X116649147Y-109439946D01*
X116605223Y-109410597D01*
X116779698Y-109338327D01*
X116958327Y-109159699D01*
X117055000Y-108926310D01*
X117055000Y-108235750D01*
X116896250Y-108077000D01*
X115697000Y-108077000D01*
X115697000Y-108097000D01*
X115443000Y-108097000D01*
X115443000Y-108077000D01*
X114243750Y-108077000D01*
X114085000Y-108235750D01*
X114085000Y-108926310D01*
X114181673Y-109159699D01*
X114360302Y-109338327D01*
X114534777Y-109410597D01*
X114490853Y-109439946D01*
X114168946Y-109921715D01*
X114055907Y-110490000D01*
X112470000Y-110490000D01*
X112470000Y-105825312D01*
X112527954Y-105912046D01*
X113340976Y-106455289D01*
X114279918Y-106642056D01*
X114181673Y-106740301D01*
X114085000Y-106973690D01*
X114085000Y-107664250D01*
X114243750Y-107823000D01*
X115443000Y-107823000D01*
X115443000Y-106623750D01*
X115697000Y-106623750D01*
X115697000Y-107823000D01*
X116896250Y-107823000D01*
X117055000Y-107664250D01*
X117055000Y-106973690D01*
X116958327Y-106740301D01*
X116779698Y-106561673D01*
X116546309Y-106465000D01*
X115855750Y-106465000D01*
X115697000Y-106623750D01*
X115443000Y-106623750D01*
X115284250Y-106465000D01*
X115210204Y-106465000D01*
X115259024Y-106455289D01*
X116072046Y-105912046D01*
X116615289Y-105099024D01*
X116806051Y-104140000D01*
X116615289Y-103180976D01*
X116072046Y-102367954D01*
X115985312Y-102310000D01*
X171380069Y-102310000D01*
X172144989Y-102462152D01*
M02*
