M48
;DRILL file {KiCad 4.0.7} date 04/18/19 14:14:12
;FORMAT={-:-/ absolute / metric / decimal}
FMAT,2
METRIC,TZ
T1C0.400
T2C1.000
%
G90
G05
M71
T1
X117.983Y-139.573
X123.393Y-141.58
X125.933Y-132.283
X131.267Y-124.917
X131.318Y-118.364
X132.182Y-130.302
X135.636Y-135.89
X136.246Y-114.097
X136.271Y-118.491
X136.271Y-125.857
X137.516Y-111.862
X138.049Y-125.603
X138.074Y-110.592
X138.176Y-136.017
X145.44Y-123.647
X145.644Y-132.334
X147.015Y-131.47
X163.424Y-114.402
X163.576Y-116.789
X164.44Y-114.452
T2
X115.57Y-107.95
X115.57Y-110.49
X115.57Y-113.03
X115.57Y-115.57
X115.57Y-118.11
X115.57Y-120.65
X115.57Y-123.19
X115.57Y-125.73
X115.57Y-128.27
X115.57Y-130.81
X115.57Y-133.35
X115.57Y-135.89
X141.541Y-135.28
X144.082Y-135.28
X156.21Y-140.97
X158.75Y-135.89
X158.75Y-140.97
X161.29Y-135.89
X161.29Y-140.97
X163.83Y-140.97
X166.37Y-140.97
T0
M30
