G04 #@! TF.FileFunction,Legend,Top*
%FSLAX46Y46*%
G04 Gerber Fmt 4.6, Leading zero omitted, Abs format (unit mm)*
G04 Created by KiCad (PCBNEW 4.0.7) date 04/18/19 14:14:10*
%MOMM*%
%LPD*%
G01*
G04 APERTURE LIST*
%ADD10C,0.100000*%
%ADD11C,0.120000*%
%ADD12C,0.150000*%
G04 APERTURE END LIST*
D10*
X156997857Y-138697857D02*
X156962143Y-138733571D01*
X156855000Y-138769286D01*
X156783571Y-138769286D01*
X156676428Y-138733571D01*
X156605000Y-138662143D01*
X156569285Y-138590714D01*
X156533571Y-138447857D01*
X156533571Y-138340714D01*
X156569285Y-138197857D01*
X156605000Y-138126429D01*
X156676428Y-138055000D01*
X156783571Y-138019286D01*
X156855000Y-138019286D01*
X156962143Y-138055000D01*
X156997857Y-138090714D01*
X157283571Y-138733571D02*
X157390714Y-138769286D01*
X157569285Y-138769286D01*
X157640714Y-138733571D01*
X157676428Y-138697857D01*
X157712143Y-138626429D01*
X157712143Y-138555000D01*
X157676428Y-138483571D01*
X157640714Y-138447857D01*
X157569285Y-138412143D01*
X157426428Y-138376429D01*
X157355000Y-138340714D01*
X157319285Y-138305000D01*
X157283571Y-138233571D01*
X157283571Y-138162143D01*
X157319285Y-138090714D01*
X157355000Y-138055000D01*
X157426428Y-138019286D01*
X157605000Y-138019286D01*
X157712143Y-138055000D01*
X157997857Y-138090714D02*
X158033571Y-138055000D01*
X158105000Y-138019286D01*
X158283571Y-138019286D01*
X158355000Y-138055000D01*
X158390714Y-138090714D01*
X158426429Y-138162143D01*
X158426429Y-138233571D01*
X158390714Y-138340714D01*
X157962143Y-138769286D01*
X158426429Y-138769286D01*
X160361428Y-138769286D02*
X160361428Y-138019286D01*
X160540000Y-138019286D01*
X160647143Y-138055000D01*
X160718571Y-138126429D01*
X160754286Y-138197857D01*
X160790000Y-138340714D01*
X160790000Y-138447857D01*
X160754286Y-138590714D01*
X160718571Y-138662143D01*
X160647143Y-138733571D01*
X160540000Y-138769286D01*
X160361428Y-138769286D01*
X161540000Y-138697857D02*
X161504286Y-138733571D01*
X161397143Y-138769286D01*
X161325714Y-138769286D01*
X161218571Y-138733571D01*
X161147143Y-138662143D01*
X161111428Y-138590714D01*
X161075714Y-138447857D01*
X161075714Y-138340714D01*
X161111428Y-138197857D01*
X161147143Y-138126429D01*
X161218571Y-138055000D01*
X161325714Y-138019286D01*
X161397143Y-138019286D01*
X161504286Y-138055000D01*
X161540000Y-138090714D01*
X161825714Y-138090714D02*
X161861428Y-138055000D01*
X161932857Y-138019286D01*
X162111428Y-138019286D01*
X162182857Y-138055000D01*
X162218571Y-138090714D01*
X162254286Y-138162143D01*
X162254286Y-138233571D01*
X162218571Y-138340714D01*
X161790000Y-138769286D01*
X162254286Y-138769286D01*
X145725800Y-135267628D02*
X145690086Y-135339057D01*
X145690086Y-135446200D01*
X145725800Y-135553343D01*
X145797229Y-135624771D01*
X145868657Y-135660486D01*
X146011514Y-135696200D01*
X146118657Y-135696200D01*
X146261514Y-135660486D01*
X146332943Y-135624771D01*
X146404371Y-135553343D01*
X146440086Y-135446200D01*
X146440086Y-135374771D01*
X146404371Y-135267628D01*
X146368657Y-135231914D01*
X146118657Y-135231914D01*
X146118657Y-135374771D01*
X146440086Y-134910486D02*
X145690086Y-134910486D01*
X146440086Y-134481914D01*
X145690086Y-134481914D01*
X146440086Y-134124772D02*
X145690086Y-134124772D01*
X145690086Y-133946200D01*
X145725800Y-133839057D01*
X145797229Y-133767629D01*
X145868657Y-133731914D01*
X146011514Y-133696200D01*
X146118657Y-133696200D01*
X146261514Y-133731914D01*
X146332943Y-133767629D01*
X146404371Y-133839057D01*
X146440086Y-133946200D01*
X146440086Y-134124772D01*
X137918144Y-134056886D02*
X138168144Y-134806886D01*
X138418144Y-134056886D01*
X138989572Y-134771171D02*
X138918143Y-134806886D01*
X138775286Y-134806886D01*
X138703858Y-134771171D01*
X138668143Y-134735457D01*
X138632429Y-134664029D01*
X138632429Y-134449743D01*
X138668143Y-134378314D01*
X138703858Y-134342600D01*
X138775286Y-134306886D01*
X138918143Y-134306886D01*
X138989572Y-134342600D01*
X139632429Y-134771171D02*
X139561000Y-134806886D01*
X139418143Y-134806886D01*
X139346715Y-134771171D01*
X139311000Y-134735457D01*
X139275286Y-134664029D01*
X139275286Y-134449743D01*
X139311000Y-134378314D01*
X139346715Y-134342600D01*
X139418143Y-134306886D01*
X139561000Y-134306886D01*
X139632429Y-134342600D01*
X166512857Y-143099286D02*
X166370000Y-143099286D01*
X166298571Y-143135000D01*
X166262857Y-143170714D01*
X166191428Y-143277857D01*
X166155714Y-143420714D01*
X166155714Y-143706429D01*
X166191428Y-143777857D01*
X166227143Y-143813571D01*
X166298571Y-143849286D01*
X166441428Y-143849286D01*
X166512857Y-143813571D01*
X166548571Y-143777857D01*
X166584286Y-143706429D01*
X166584286Y-143527857D01*
X166548571Y-143456429D01*
X166512857Y-143420714D01*
X166441428Y-143385000D01*
X166298571Y-143385000D01*
X166227143Y-143420714D01*
X166191428Y-143456429D01*
X166155714Y-143527857D01*
X163972857Y-143349286D02*
X163972857Y-143849286D01*
X163794286Y-143063571D02*
X163615714Y-143599286D01*
X164080000Y-143599286D01*
X161040000Y-143099286D02*
X161504286Y-143099286D01*
X161254286Y-143385000D01*
X161361428Y-143385000D01*
X161432857Y-143420714D01*
X161468571Y-143456429D01*
X161504286Y-143527857D01*
X161504286Y-143706429D01*
X161468571Y-143777857D01*
X161432857Y-143813571D01*
X161361428Y-143849286D01*
X161147143Y-143849286D01*
X161075714Y-143813571D01*
X161040000Y-143777857D01*
X158535714Y-143170714D02*
X158571428Y-143135000D01*
X158642857Y-143099286D01*
X158821428Y-143099286D01*
X158892857Y-143135000D01*
X158928571Y-143170714D01*
X158964286Y-143242143D01*
X158964286Y-143313571D01*
X158928571Y-143420714D01*
X158500000Y-143849286D01*
X158964286Y-143849286D01*
X156424286Y-143849286D02*
X155995714Y-143849286D01*
X156210000Y-143849286D02*
X156210000Y-143099286D01*
X156138571Y-143206429D01*
X156067143Y-143277857D01*
X155995714Y-143313571D01*
X204059286Y-135401429D02*
X204595000Y-135401429D01*
X204702143Y-135437143D01*
X204773571Y-135508572D01*
X204809286Y-135615715D01*
X204809286Y-135687143D01*
X204809286Y-134937143D02*
X204773571Y-135008571D01*
X204737857Y-135044286D01*
X204666429Y-135080000D01*
X204452143Y-135080000D01*
X204380714Y-135044286D01*
X204345000Y-135008571D01*
X204309286Y-134937143D01*
X204309286Y-134830000D01*
X204345000Y-134758571D01*
X204380714Y-134722857D01*
X204452143Y-134687143D01*
X204666429Y-134687143D01*
X204737857Y-134722857D01*
X204773571Y-134758571D01*
X204809286Y-134830000D01*
X204809286Y-134937143D01*
X204309286Y-134437143D02*
X204809286Y-134258572D01*
X204309286Y-134080000D02*
X204809286Y-134258572D01*
X204987857Y-134330000D01*
X205023571Y-134365715D01*
X205059286Y-134437143D01*
X204773571Y-133830000D02*
X204809286Y-133758571D01*
X204809286Y-133615714D01*
X204773571Y-133544286D01*
X204702143Y-133508571D01*
X204666429Y-133508571D01*
X204595000Y-133544286D01*
X204559286Y-133615714D01*
X204559286Y-133722857D01*
X204523571Y-133794286D01*
X204452143Y-133830000D01*
X204416429Y-133830000D01*
X204345000Y-133794286D01*
X204309286Y-133722857D01*
X204309286Y-133615714D01*
X204345000Y-133544286D01*
X204309286Y-133294285D02*
X204309286Y-133008571D01*
X204059286Y-133187143D02*
X204702143Y-133187143D01*
X204773571Y-133151428D01*
X204809286Y-133080000D01*
X204809286Y-133008571D01*
X204809286Y-132758572D02*
X204309286Y-132758572D01*
X204059286Y-132758572D02*
X204095000Y-132794286D01*
X204130714Y-132758572D01*
X204095000Y-132722857D01*
X204059286Y-132758572D01*
X204130714Y-132758572D01*
X204773571Y-132080000D02*
X204809286Y-132151429D01*
X204809286Y-132294286D01*
X204773571Y-132365714D01*
X204737857Y-132401429D01*
X204666429Y-132437143D01*
X204452143Y-132437143D01*
X204380714Y-132401429D01*
X204345000Y-132365714D01*
X204309286Y-132294286D01*
X204309286Y-132151429D01*
X204345000Y-132080000D01*
X204809286Y-131758572D02*
X204059286Y-131758572D01*
X204523571Y-131687143D02*
X204809286Y-131472857D01*
X204309286Y-131472857D02*
X204595000Y-131758572D01*
X204809286Y-130580000D02*
X204059286Y-130580000D01*
X204059286Y-130294285D01*
X204095000Y-130222857D01*
X204130714Y-130187142D01*
X204202143Y-130151428D01*
X204309286Y-130151428D01*
X204380714Y-130187142D01*
X204416429Y-130222857D01*
X204452143Y-130294285D01*
X204452143Y-130580000D01*
X204809286Y-129830000D02*
X204309286Y-129830000D01*
X204059286Y-129830000D02*
X204095000Y-129865714D01*
X204130714Y-129830000D01*
X204095000Y-129794285D01*
X204059286Y-129830000D01*
X204130714Y-129830000D01*
X204309286Y-129472857D02*
X204809286Y-129472857D01*
X204380714Y-129472857D02*
X204345000Y-129437142D01*
X204309286Y-129365714D01*
X204309286Y-129258571D01*
X204345000Y-129187142D01*
X204416429Y-129151428D01*
X204809286Y-129151428D01*
X204773571Y-128830000D02*
X204809286Y-128758571D01*
X204809286Y-128615714D01*
X204773571Y-128544286D01*
X204702143Y-128508571D01*
X204666429Y-128508571D01*
X204595000Y-128544286D01*
X204559286Y-128615714D01*
X204559286Y-128722857D01*
X204523571Y-128794286D01*
X204452143Y-128830000D01*
X204416429Y-128830000D01*
X204345000Y-128794286D01*
X204309286Y-128722857D01*
X204309286Y-128615714D01*
X204345000Y-128544286D01*
X118449286Y-125489287D02*
X117699286Y-125489287D01*
X118449286Y-125132144D02*
X117699286Y-125132144D01*
X117699286Y-124846429D01*
X117735000Y-124775001D01*
X117770714Y-124739286D01*
X117842143Y-124703572D01*
X117949286Y-124703572D01*
X118020714Y-124739286D01*
X118056429Y-124775001D01*
X118092143Y-124846429D01*
X118092143Y-125132144D01*
X118413571Y-124417858D02*
X118449286Y-124310715D01*
X118449286Y-124132144D01*
X118413571Y-124060715D01*
X118377857Y-124025001D01*
X118306429Y-123989286D01*
X118235000Y-123989286D01*
X118163571Y-124025001D01*
X118127857Y-124060715D01*
X118092143Y-124132144D01*
X118056429Y-124275001D01*
X118020714Y-124346429D01*
X117985000Y-124382144D01*
X117913571Y-124417858D01*
X117842143Y-124417858D01*
X117770714Y-124382144D01*
X117735000Y-124346429D01*
X117699286Y-124275001D01*
X117699286Y-124096429D01*
X117735000Y-123989286D01*
X118449286Y-123096429D02*
X117699286Y-123096429D01*
X117699286Y-122917857D01*
X117735000Y-122810714D01*
X117806429Y-122739286D01*
X117877857Y-122703571D01*
X118020714Y-122667857D01*
X118127857Y-122667857D01*
X118270714Y-122703571D01*
X118342143Y-122739286D01*
X118413571Y-122810714D01*
X118449286Y-122917857D01*
X118449286Y-123096429D01*
X118449286Y-122346429D02*
X117699286Y-122346429D01*
X118413571Y-122025000D02*
X118449286Y-121917857D01*
X118449286Y-121739286D01*
X118413571Y-121667857D01*
X118377857Y-121632143D01*
X118306429Y-121596428D01*
X118235000Y-121596428D01*
X118163571Y-121632143D01*
X118127857Y-121667857D01*
X118092143Y-121739286D01*
X118056429Y-121882143D01*
X118020714Y-121953571D01*
X117985000Y-121989286D01*
X117913571Y-122025000D01*
X117842143Y-122025000D01*
X117770714Y-121989286D01*
X117735000Y-121953571D01*
X117699286Y-121882143D01*
X117699286Y-121703571D01*
X117735000Y-121596428D01*
X118449286Y-121275000D02*
X117699286Y-121275000D01*
X117699286Y-120989285D01*
X117735000Y-120917857D01*
X117770714Y-120882142D01*
X117842143Y-120846428D01*
X117949286Y-120846428D01*
X118020714Y-120882142D01*
X118056429Y-120917857D01*
X118092143Y-120989285D01*
X118092143Y-121275000D01*
X118449286Y-120167857D02*
X118449286Y-120525000D01*
X117699286Y-120525000D01*
X118235000Y-119953571D02*
X118235000Y-119596428D01*
X118449286Y-120024999D02*
X117699286Y-119774999D01*
X118449286Y-119524999D01*
X118092143Y-119132142D02*
X118449286Y-119132142D01*
X117699286Y-119382142D02*
X118092143Y-119132142D01*
X117699286Y-118882142D01*
X118449286Y-118060714D02*
X117699286Y-118060714D01*
X117699286Y-117774999D01*
X117735000Y-117703571D01*
X117770714Y-117667856D01*
X117842143Y-117632142D01*
X117949286Y-117632142D01*
X118020714Y-117667856D01*
X118056429Y-117703571D01*
X118092143Y-117774999D01*
X118092143Y-118060714D01*
X118449286Y-117310714D02*
X117699286Y-117310714D01*
X118449286Y-116953571D02*
X117699286Y-116953571D01*
X118449286Y-116524999D01*
X117699286Y-116524999D01*
X118413571Y-116203571D02*
X118449286Y-116096428D01*
X118449286Y-115917857D01*
X118413571Y-115846428D01*
X118377857Y-115810714D01*
X118306429Y-115774999D01*
X118235000Y-115774999D01*
X118163571Y-115810714D01*
X118127857Y-115846428D01*
X118092143Y-115917857D01*
X118056429Y-116060714D01*
X118020714Y-116132142D01*
X117985000Y-116167857D01*
X117913571Y-116203571D01*
X117842143Y-116203571D01*
X117770714Y-116167857D01*
X117735000Y-116132142D01*
X117699286Y-116060714D01*
X117699286Y-115882142D01*
X117735000Y-115774999D01*
X112331571Y-123529286D02*
X112331571Y-122779286D01*
X112510143Y-122779286D01*
X112617286Y-122815000D01*
X112688714Y-122886429D01*
X112724429Y-122957857D01*
X112760143Y-123100714D01*
X112760143Y-123207857D01*
X112724429Y-123350714D01*
X112688714Y-123422143D01*
X112617286Y-123493571D01*
X112510143Y-123529286D01*
X112331571Y-123529286D01*
X113510143Y-123457857D02*
X113474429Y-123493571D01*
X113367286Y-123529286D01*
X113295857Y-123529286D01*
X113188714Y-123493571D01*
X113117286Y-123422143D01*
X113081571Y-123350714D01*
X113045857Y-123207857D01*
X113045857Y-123100714D01*
X113081571Y-122957857D01*
X113117286Y-122886429D01*
X113188714Y-122815000D01*
X113295857Y-122779286D01*
X113367286Y-122779286D01*
X113474429Y-122815000D01*
X113510143Y-122850714D01*
X112651000Y-125997857D02*
X112615286Y-126033571D01*
X112508143Y-126069286D01*
X112436714Y-126069286D01*
X112329571Y-126033571D01*
X112258143Y-125962143D01*
X112222428Y-125890714D01*
X112186714Y-125747857D01*
X112186714Y-125640714D01*
X112222428Y-125497857D01*
X112258143Y-125426429D01*
X112329571Y-125355000D01*
X112436714Y-125319286D01*
X112508143Y-125319286D01*
X112615286Y-125355000D01*
X112651000Y-125390714D01*
X112936714Y-126033571D02*
X113043857Y-126069286D01*
X113222428Y-126069286D01*
X113293857Y-126033571D01*
X113329571Y-125997857D01*
X113365286Y-125926429D01*
X113365286Y-125855000D01*
X113329571Y-125783571D01*
X113293857Y-125747857D01*
X113222428Y-125712143D01*
X113079571Y-125676429D01*
X113008143Y-125640714D01*
X112972428Y-125605000D01*
X112936714Y-125533571D01*
X112936714Y-125462143D01*
X112972428Y-125390714D01*
X113008143Y-125355000D01*
X113079571Y-125319286D01*
X113258143Y-125319286D01*
X113365286Y-125355000D01*
X112331572Y-135642000D02*
X112260143Y-135606286D01*
X112153000Y-135606286D01*
X112045857Y-135642000D01*
X111974429Y-135713429D01*
X111938714Y-135784857D01*
X111903000Y-135927714D01*
X111903000Y-136034857D01*
X111938714Y-136177714D01*
X111974429Y-136249143D01*
X112045857Y-136320571D01*
X112153000Y-136356286D01*
X112224429Y-136356286D01*
X112331572Y-136320571D01*
X112367286Y-136284857D01*
X112367286Y-136034857D01*
X112224429Y-136034857D01*
X112688714Y-136356286D02*
X112688714Y-135606286D01*
X113117286Y-136356286D01*
X113117286Y-135606286D01*
X113474428Y-136356286D02*
X113474428Y-135606286D01*
X113653000Y-135606286D01*
X113760143Y-135642000D01*
X113831571Y-135713429D01*
X113867286Y-135784857D01*
X113903000Y-135927714D01*
X113903000Y-136034857D01*
X113867286Y-136177714D01*
X113831571Y-136249143D01*
X113760143Y-136320571D01*
X113653000Y-136356286D01*
X113474428Y-136356286D01*
X112137144Y-115159286D02*
X112387144Y-115909286D01*
X112637144Y-115159286D01*
X113208572Y-115873571D02*
X113137143Y-115909286D01*
X112994286Y-115909286D01*
X112922858Y-115873571D01*
X112887143Y-115837857D01*
X112851429Y-115766429D01*
X112851429Y-115552143D01*
X112887143Y-115480714D01*
X112922858Y-115445000D01*
X112994286Y-115409286D01*
X113137143Y-115409286D01*
X113208572Y-115445000D01*
X113851429Y-115873571D02*
X113780000Y-115909286D01*
X113637143Y-115909286D01*
X113565715Y-115873571D01*
X113530000Y-115837857D01*
X113494286Y-115766429D01*
X113494286Y-115552143D01*
X113530000Y-115480714D01*
X113565715Y-115445000D01*
X113637143Y-115409286D01*
X113780000Y-115409286D01*
X113851429Y-115445000D01*
X112280000Y-113242286D02*
X111922857Y-113242286D01*
X111922857Y-112492286D01*
X112815715Y-113206571D02*
X112744286Y-113242286D01*
X112601429Y-113242286D01*
X112530000Y-113206571D01*
X112494286Y-113135143D01*
X112494286Y-112849429D01*
X112530000Y-112778000D01*
X112601429Y-112742286D01*
X112744286Y-112742286D01*
X112815715Y-112778000D01*
X112851429Y-112849429D01*
X112851429Y-112920857D01*
X112494286Y-112992286D01*
X113494286Y-113242286D02*
X113494286Y-112492286D01*
X113494286Y-113206571D02*
X113422857Y-113242286D01*
X113280000Y-113242286D01*
X113208572Y-113206571D01*
X113172857Y-113170857D01*
X113137143Y-113099429D01*
X113137143Y-112885143D01*
X113172857Y-112813714D01*
X113208572Y-112778000D01*
X113280000Y-112742286D01*
X113422857Y-112742286D01*
X113494286Y-112778000D01*
X113815714Y-113028000D02*
X114172857Y-113028000D01*
X113744286Y-113242286D02*
X113994286Y-112492286D01*
X114244286Y-113242286D01*
X112226429Y-110702286D02*
X111869286Y-110702286D01*
X111869286Y-109952286D01*
X112762144Y-110666571D02*
X112690715Y-110702286D01*
X112547858Y-110702286D01*
X112476429Y-110666571D01*
X112440715Y-110595143D01*
X112440715Y-110309429D01*
X112476429Y-110238000D01*
X112547858Y-110202286D01*
X112690715Y-110202286D01*
X112762144Y-110238000D01*
X112797858Y-110309429D01*
X112797858Y-110380857D01*
X112440715Y-110452286D01*
X113440715Y-110702286D02*
X113440715Y-109952286D01*
X113440715Y-110666571D02*
X113369286Y-110702286D01*
X113226429Y-110702286D01*
X113155001Y-110666571D01*
X113119286Y-110630857D01*
X113083572Y-110559429D01*
X113083572Y-110345143D01*
X113119286Y-110273714D01*
X113155001Y-110238000D01*
X113226429Y-110202286D01*
X113369286Y-110202286D01*
X113440715Y-110238000D01*
X113797857Y-110702286D02*
X113797857Y-109952286D01*
X114226429Y-110702286D02*
X113905000Y-110273714D01*
X114226429Y-109952286D02*
X113797857Y-110380857D01*
X112458572Y-120275000D02*
X112387143Y-120239286D01*
X112280000Y-120239286D01*
X112172857Y-120275000D01*
X112101429Y-120346429D01*
X112065714Y-120417857D01*
X112030000Y-120560714D01*
X112030000Y-120667857D01*
X112065714Y-120810714D01*
X112101429Y-120882143D01*
X112172857Y-120953571D01*
X112280000Y-120989286D01*
X112351429Y-120989286D01*
X112458572Y-120953571D01*
X112494286Y-120917857D01*
X112494286Y-120667857D01*
X112351429Y-120667857D01*
X112815714Y-120989286D02*
X112815714Y-120239286D01*
X113244286Y-120989286D01*
X113244286Y-120239286D01*
X113601428Y-120989286D02*
X113601428Y-120239286D01*
X113780000Y-120239286D01*
X113887143Y-120275000D01*
X113958571Y-120346429D01*
X113994286Y-120417857D01*
X114030000Y-120560714D01*
X114030000Y-120667857D01*
X113994286Y-120810714D01*
X113958571Y-120882143D01*
X113887143Y-120953571D01*
X113780000Y-120989286D01*
X113601428Y-120989286D01*
X112458572Y-117608000D02*
X112387143Y-117572286D01*
X112280000Y-117572286D01*
X112172857Y-117608000D01*
X112101429Y-117679429D01*
X112065714Y-117750857D01*
X112030000Y-117893714D01*
X112030000Y-118000857D01*
X112065714Y-118143714D01*
X112101429Y-118215143D01*
X112172857Y-118286571D01*
X112280000Y-118322286D01*
X112351429Y-118322286D01*
X112458572Y-118286571D01*
X112494286Y-118250857D01*
X112494286Y-118000857D01*
X112351429Y-118000857D01*
X112815714Y-118322286D02*
X112815714Y-117572286D01*
X113244286Y-118322286D01*
X113244286Y-117572286D01*
X113601428Y-118322286D02*
X113601428Y-117572286D01*
X113780000Y-117572286D01*
X113887143Y-117608000D01*
X113958571Y-117679429D01*
X113994286Y-117750857D01*
X114030000Y-117893714D01*
X114030000Y-118000857D01*
X113994286Y-118143714D01*
X113958571Y-118215143D01*
X113887143Y-118286571D01*
X113780000Y-118322286D01*
X113601428Y-118322286D01*
X112063714Y-128573571D02*
X112170857Y-128609286D01*
X112349428Y-128609286D01*
X112420857Y-128573571D01*
X112456571Y-128537857D01*
X112492286Y-128466429D01*
X112492286Y-128395000D01*
X112456571Y-128323571D01*
X112420857Y-128287857D01*
X112349428Y-128252143D01*
X112206571Y-128216429D01*
X112135143Y-128180714D01*
X112099428Y-128145000D01*
X112063714Y-128073571D01*
X112063714Y-128002143D01*
X112099428Y-127930714D01*
X112135143Y-127895000D01*
X112206571Y-127859286D01*
X112385143Y-127859286D01*
X112492286Y-127895000D01*
X113135143Y-128573571D02*
X113063714Y-128609286D01*
X112920857Y-128609286D01*
X112849429Y-128573571D01*
X112813714Y-128537857D01*
X112778000Y-128466429D01*
X112778000Y-128252143D01*
X112813714Y-128180714D01*
X112849429Y-128145000D01*
X112920857Y-128109286D01*
X113063714Y-128109286D01*
X113135143Y-128145000D01*
X113456571Y-128609286D02*
X113456571Y-127859286D01*
X113528000Y-128323571D02*
X113742286Y-128609286D01*
X113742286Y-128109286D02*
X113456571Y-128395000D01*
X111958571Y-131022286D02*
X111958571Y-130272286D01*
X112208571Y-130808000D01*
X112458571Y-130272286D01*
X112458571Y-131022286D01*
X112922857Y-131022286D02*
X112851429Y-130986571D01*
X112815714Y-130950857D01*
X112780000Y-130879429D01*
X112780000Y-130665143D01*
X112815714Y-130593714D01*
X112851429Y-130558000D01*
X112922857Y-130522286D01*
X113030000Y-130522286D01*
X113101429Y-130558000D01*
X113137143Y-130593714D01*
X113172857Y-130665143D01*
X113172857Y-130879429D01*
X113137143Y-130950857D01*
X113101429Y-130986571D01*
X113030000Y-131022286D01*
X112922857Y-131022286D01*
X113458571Y-130986571D02*
X113530000Y-131022286D01*
X113672857Y-131022286D01*
X113744285Y-130986571D01*
X113780000Y-130915143D01*
X113780000Y-130879429D01*
X113744285Y-130808000D01*
X113672857Y-130772286D01*
X113565714Y-130772286D01*
X113494285Y-130736571D01*
X113458571Y-130665143D01*
X113458571Y-130629429D01*
X113494285Y-130558000D01*
X113565714Y-130522286D01*
X113672857Y-130522286D01*
X113744285Y-130558000D01*
X114101428Y-131022286D02*
X114101428Y-130522286D01*
X114101428Y-130272286D02*
X114065714Y-130308000D01*
X114101428Y-130343714D01*
X114137143Y-130308000D01*
X114101428Y-130272286D01*
X114101428Y-130343714D01*
X112492286Y-133816286D02*
X112242286Y-133459143D01*
X112063714Y-133816286D02*
X112063714Y-133066286D01*
X112349429Y-133066286D01*
X112420857Y-133102000D01*
X112456572Y-133137714D01*
X112492286Y-133209143D01*
X112492286Y-133316286D01*
X112456572Y-133387714D01*
X112420857Y-133423429D01*
X112349429Y-133459143D01*
X112063714Y-133459143D01*
X112778000Y-133780571D02*
X112885143Y-133816286D01*
X113063714Y-133816286D01*
X113135143Y-133780571D01*
X113170857Y-133744857D01*
X113206572Y-133673429D01*
X113206572Y-133602000D01*
X113170857Y-133530571D01*
X113135143Y-133494857D01*
X113063714Y-133459143D01*
X112920857Y-133423429D01*
X112849429Y-133387714D01*
X112813714Y-133352000D01*
X112778000Y-133280571D01*
X112778000Y-133209143D01*
X112813714Y-133137714D01*
X112849429Y-133102000D01*
X112920857Y-133066286D01*
X113099429Y-133066286D01*
X113206572Y-133102000D01*
X113420858Y-133066286D02*
X113849429Y-133066286D01*
X113635143Y-133816286D02*
X113635143Y-133066286D01*
X112458572Y-107702000D02*
X112387143Y-107666286D01*
X112280000Y-107666286D01*
X112172857Y-107702000D01*
X112101429Y-107773429D01*
X112065714Y-107844857D01*
X112030000Y-107987714D01*
X112030000Y-108094857D01*
X112065714Y-108237714D01*
X112101429Y-108309143D01*
X112172857Y-108380571D01*
X112280000Y-108416286D01*
X112351429Y-108416286D01*
X112458572Y-108380571D01*
X112494286Y-108344857D01*
X112494286Y-108094857D01*
X112351429Y-108094857D01*
X112815714Y-108416286D02*
X112815714Y-107666286D01*
X113244286Y-108416286D01*
X113244286Y-107666286D01*
X113601428Y-108416286D02*
X113601428Y-107666286D01*
X113780000Y-107666286D01*
X113887143Y-107702000D01*
X113958571Y-107773429D01*
X113994286Y-107844857D01*
X114030000Y-107987714D01*
X114030000Y-108094857D01*
X113994286Y-108237714D01*
X113958571Y-108309143D01*
X113887143Y-108380571D01*
X113780000Y-108416286D01*
X113601428Y-108416286D01*
X150033571Y-147046786D02*
X150033571Y-146296786D01*
X150390714Y-147046786D02*
X150390714Y-146296786D01*
X150676429Y-146296786D01*
X150747857Y-146332500D01*
X150783572Y-146368214D01*
X150819286Y-146439643D01*
X150819286Y-146546786D01*
X150783572Y-146618214D01*
X150747857Y-146653929D01*
X150676429Y-146689643D01*
X150390714Y-146689643D01*
X151105000Y-147011071D02*
X151212143Y-147046786D01*
X151390714Y-147046786D01*
X151462143Y-147011071D01*
X151497857Y-146975357D01*
X151533572Y-146903929D01*
X151533572Y-146832500D01*
X151497857Y-146761071D01*
X151462143Y-146725357D01*
X151390714Y-146689643D01*
X151247857Y-146653929D01*
X151176429Y-146618214D01*
X151140714Y-146582500D01*
X151105000Y-146511071D01*
X151105000Y-146439643D01*
X151140714Y-146368214D01*
X151176429Y-146332500D01*
X151247857Y-146296786D01*
X151426429Y-146296786D01*
X151533572Y-146332500D01*
X152819287Y-147046786D02*
X152390715Y-147046786D01*
X152605001Y-147046786D02*
X152605001Y-146296786D01*
X152533572Y-146403929D01*
X152462144Y-146475357D01*
X152390715Y-146511071D01*
X153140715Y-146975357D02*
X153176430Y-147011071D01*
X153140715Y-147046786D01*
X153105001Y-147011071D01*
X153140715Y-146975357D01*
X153140715Y-147046786D01*
X153855001Y-146296786D02*
X153497858Y-146296786D01*
X153462144Y-146653929D01*
X153497858Y-146618214D01*
X153569287Y-146582500D01*
X153747858Y-146582500D01*
X153819287Y-146618214D01*
X153855001Y-146653929D01*
X153890716Y-146725357D01*
X153890716Y-146903929D01*
X153855001Y-146975357D01*
X153819287Y-147011071D01*
X153747858Y-147046786D01*
X153569287Y-147046786D01*
X153497858Y-147011071D01*
X153462144Y-146975357D01*
X154533573Y-146546786D02*
X154533573Y-147046786D01*
X154355002Y-146261071D02*
X154176430Y-146796786D01*
X154640716Y-146796786D01*
X154890716Y-146296786D02*
X154890716Y-146439643D01*
X155176430Y-146296786D02*
X155176430Y-146439643D01*
X156319288Y-146653929D02*
X156426431Y-146689643D01*
X156462146Y-146725357D01*
X156497860Y-146796786D01*
X156497860Y-146903929D01*
X156462146Y-146975357D01*
X156426431Y-147011071D01*
X156355003Y-147046786D01*
X156069288Y-147046786D01*
X156069288Y-146296786D01*
X156319288Y-146296786D01*
X156390717Y-146332500D01*
X156426431Y-146368214D01*
X156462146Y-146439643D01*
X156462146Y-146511071D01*
X156426431Y-146582500D01*
X156390717Y-146618214D01*
X156319288Y-146653929D01*
X156069288Y-146653929D01*
X156819288Y-147046786D02*
X156819288Y-146546786D01*
X156819288Y-146689643D02*
X156855003Y-146618214D01*
X156890717Y-146582500D01*
X156962146Y-146546786D01*
X157033574Y-146546786D01*
X157569289Y-147011071D02*
X157497860Y-147046786D01*
X157355003Y-147046786D01*
X157283574Y-147011071D01*
X157247860Y-146939643D01*
X157247860Y-146653929D01*
X157283574Y-146582500D01*
X157355003Y-146546786D01*
X157497860Y-146546786D01*
X157569289Y-146582500D01*
X157605003Y-146653929D01*
X157605003Y-146725357D01*
X157247860Y-146796786D01*
X158247860Y-147046786D02*
X158247860Y-146653929D01*
X158212146Y-146582500D01*
X158140717Y-146546786D01*
X157997860Y-146546786D01*
X157926431Y-146582500D01*
X158247860Y-147011071D02*
X158176431Y-147046786D01*
X157997860Y-147046786D01*
X157926431Y-147011071D01*
X157890717Y-146939643D01*
X157890717Y-146868214D01*
X157926431Y-146796786D01*
X157997860Y-146761071D01*
X158176431Y-146761071D01*
X158247860Y-146725357D01*
X158926431Y-147046786D02*
X158926431Y-146296786D01*
X158926431Y-147011071D02*
X158855002Y-147046786D01*
X158712145Y-147046786D01*
X158640717Y-147011071D01*
X158605002Y-146975357D01*
X158569288Y-146903929D01*
X158569288Y-146689643D01*
X158605002Y-146618214D01*
X158640717Y-146582500D01*
X158712145Y-146546786D01*
X158855002Y-146546786D01*
X158926431Y-146582500D01*
X159283573Y-147046786D02*
X159283573Y-146296786D01*
X159283573Y-146582500D02*
X159355002Y-146546786D01*
X159497859Y-146546786D01*
X159569288Y-146582500D01*
X159605002Y-146618214D01*
X159640716Y-146689643D01*
X159640716Y-146903929D01*
X159605002Y-146975357D01*
X159569288Y-147011071D01*
X159497859Y-147046786D01*
X159355002Y-147046786D01*
X159283573Y-147011071D01*
X160069287Y-147046786D02*
X159997859Y-147011071D01*
X159962144Y-146975357D01*
X159926430Y-146903929D01*
X159926430Y-146689643D01*
X159962144Y-146618214D01*
X159997859Y-146582500D01*
X160069287Y-146546786D01*
X160176430Y-146546786D01*
X160247859Y-146582500D01*
X160283573Y-146618214D01*
X160319287Y-146689643D01*
X160319287Y-146903929D01*
X160283573Y-146975357D01*
X160247859Y-147011071D01*
X160176430Y-147046786D01*
X160069287Y-147046786D01*
X160962144Y-147046786D02*
X160962144Y-146653929D01*
X160926430Y-146582500D01*
X160855001Y-146546786D01*
X160712144Y-146546786D01*
X160640715Y-146582500D01*
X160962144Y-147011071D02*
X160890715Y-147046786D01*
X160712144Y-147046786D01*
X160640715Y-147011071D01*
X160605001Y-146939643D01*
X160605001Y-146868214D01*
X160640715Y-146796786D01*
X160712144Y-146761071D01*
X160890715Y-146761071D01*
X160962144Y-146725357D01*
X161319286Y-147046786D02*
X161319286Y-146546786D01*
X161319286Y-146689643D02*
X161355001Y-146618214D01*
X161390715Y-146582500D01*
X161462144Y-146546786D01*
X161533572Y-146546786D01*
X162105001Y-147046786D02*
X162105001Y-146296786D01*
X162105001Y-147011071D02*
X162033572Y-147046786D01*
X161890715Y-147046786D01*
X161819287Y-147011071D01*
X161783572Y-146975357D01*
X161747858Y-146903929D01*
X161747858Y-146689643D01*
X161783572Y-146618214D01*
X161819287Y-146582500D01*
X161890715Y-146546786D01*
X162033572Y-146546786D01*
X162105001Y-146582500D01*
X163033572Y-147046786D02*
X163033572Y-146296786D01*
X163319287Y-146296786D01*
X163390715Y-146332500D01*
X163426430Y-146368214D01*
X163462144Y-146439643D01*
X163462144Y-146546786D01*
X163426430Y-146618214D01*
X163390715Y-146653929D01*
X163319287Y-146689643D01*
X163033572Y-146689643D01*
X164212144Y-146975357D02*
X164176430Y-147011071D01*
X164069287Y-147046786D01*
X163997858Y-147046786D01*
X163890715Y-147011071D01*
X163819287Y-146939643D01*
X163783572Y-146868214D01*
X163747858Y-146725357D01*
X163747858Y-146618214D01*
X163783572Y-146475357D01*
X163819287Y-146403929D01*
X163890715Y-146332500D01*
X163997858Y-146296786D01*
X164069287Y-146296786D01*
X164176430Y-146332500D01*
X164212144Y-146368214D01*
X164783572Y-146653929D02*
X164890715Y-146689643D01*
X164926430Y-146725357D01*
X164962144Y-146796786D01*
X164962144Y-146903929D01*
X164926430Y-146975357D01*
X164890715Y-147011071D01*
X164819287Y-147046786D01*
X164533572Y-147046786D01*
X164533572Y-146296786D01*
X164783572Y-146296786D01*
X164855001Y-146332500D01*
X164890715Y-146368214D01*
X164926430Y-146439643D01*
X164926430Y-146511071D01*
X164890715Y-146582500D01*
X164855001Y-146618214D01*
X164783572Y-146653929D01*
X164533572Y-146653929D01*
X153908572Y-147521786D02*
X154087143Y-148271786D01*
X154230000Y-147736071D01*
X154372858Y-148271786D01*
X154551429Y-147521786D01*
X154837143Y-148271786D02*
X154837143Y-147771786D01*
X154837143Y-147521786D02*
X154801429Y-147557500D01*
X154837143Y-147593214D01*
X154872858Y-147557500D01*
X154837143Y-147521786D01*
X154837143Y-147593214D01*
X155087144Y-147771786D02*
X155372858Y-147771786D01*
X155194286Y-147521786D02*
X155194286Y-148164643D01*
X155230001Y-148236071D01*
X155301429Y-148271786D01*
X155372858Y-148271786D01*
X155622857Y-148271786D02*
X155622857Y-147521786D01*
X155944286Y-148271786D02*
X155944286Y-147878929D01*
X155908572Y-147807500D01*
X155837143Y-147771786D01*
X155730000Y-147771786D01*
X155658572Y-147807500D01*
X155622857Y-147843214D01*
X157087143Y-147521786D02*
X157087143Y-148057500D01*
X157051429Y-148164643D01*
X156980000Y-148236071D01*
X156872857Y-148271786D01*
X156801429Y-148271786D01*
X157551429Y-148271786D02*
X157480001Y-148236071D01*
X157444286Y-148200357D01*
X157408572Y-148128929D01*
X157408572Y-147914643D01*
X157444286Y-147843214D01*
X157480001Y-147807500D01*
X157551429Y-147771786D01*
X157658572Y-147771786D01*
X157730001Y-147807500D01*
X157765715Y-147843214D01*
X157801429Y-147914643D01*
X157801429Y-148128929D01*
X157765715Y-148200357D01*
X157730001Y-148236071D01*
X157658572Y-148271786D01*
X157551429Y-148271786D01*
X158051429Y-147771786D02*
X158230000Y-148271786D01*
X158408572Y-147771786D02*
X158230000Y-148271786D01*
X158158572Y-148450357D01*
X158122857Y-148486071D01*
X158051429Y-148521786D01*
X158658572Y-148236071D02*
X158730001Y-148271786D01*
X158872858Y-148271786D01*
X158944286Y-148236071D01*
X158980001Y-148164643D01*
X158980001Y-148128929D01*
X158944286Y-148057500D01*
X158872858Y-148021786D01*
X158765715Y-148021786D01*
X158694286Y-147986071D01*
X158658572Y-147914643D01*
X158658572Y-147878929D01*
X158694286Y-147807500D01*
X158765715Y-147771786D01*
X158872858Y-147771786D01*
X158944286Y-147807500D01*
X159194287Y-147771786D02*
X159480001Y-147771786D01*
X159301429Y-147521786D02*
X159301429Y-148164643D01*
X159337144Y-148236071D01*
X159408572Y-148271786D01*
X159480001Y-148271786D01*
X159730000Y-148271786D02*
X159730000Y-147771786D01*
X159730000Y-147521786D02*
X159694286Y-147557500D01*
X159730000Y-147593214D01*
X159765715Y-147557500D01*
X159730000Y-147521786D01*
X159730000Y-147593214D01*
X160408572Y-148236071D02*
X160337143Y-148271786D01*
X160194286Y-148271786D01*
X160122858Y-148236071D01*
X160087143Y-148200357D01*
X160051429Y-148128929D01*
X160051429Y-147914643D01*
X160087143Y-147843214D01*
X160122858Y-147807500D01*
X160194286Y-147771786D01*
X160337143Y-147771786D01*
X160408572Y-147807500D01*
X160730000Y-148271786D02*
X160730000Y-147521786D01*
X160801429Y-147986071D02*
X161015715Y-148271786D01*
X161015715Y-147771786D02*
X160730000Y-148057500D01*
X128724714Y-103082286D02*
X128724714Y-102332286D01*
X128903286Y-102332286D01*
X129010429Y-102368000D01*
X129081857Y-102439429D01*
X129117572Y-102510857D01*
X129153286Y-102653714D01*
X129153286Y-102760857D01*
X129117572Y-102903714D01*
X129081857Y-102975143D01*
X129010429Y-103046571D01*
X128903286Y-103082286D01*
X128724714Y-103082286D01*
X129474714Y-103082286D02*
X129474714Y-102582286D01*
X129474714Y-102725143D02*
X129510429Y-102653714D01*
X129546143Y-102618000D01*
X129617572Y-102582286D01*
X129689000Y-102582286D01*
X130939001Y-103010857D02*
X130903287Y-103046571D01*
X130796144Y-103082286D01*
X130724715Y-103082286D01*
X130617572Y-103046571D01*
X130546144Y-102975143D01*
X130510429Y-102903714D01*
X130474715Y-102760857D01*
X130474715Y-102653714D01*
X130510429Y-102510857D01*
X130546144Y-102439429D01*
X130617572Y-102368000D01*
X130724715Y-102332286D01*
X130796144Y-102332286D01*
X130903287Y-102368000D01*
X130939001Y-102403714D01*
X131224715Y-102868000D02*
X131581858Y-102868000D01*
X131153287Y-103082286D02*
X131403287Y-102332286D01*
X131653287Y-103082286D01*
X131903286Y-103082286D02*
X131903286Y-102332286D01*
X132081858Y-102332286D01*
X132189001Y-102368000D01*
X132260429Y-102439429D01*
X132296144Y-102510857D01*
X132331858Y-102653714D01*
X132331858Y-102760857D01*
X132296144Y-102903714D01*
X132260429Y-102975143D01*
X132189001Y-103046571D01*
X132081858Y-103082286D01*
X131903286Y-103082286D01*
X132653286Y-103082286D02*
X132653286Y-102332286D01*
X133439001Y-103010857D02*
X133403287Y-103046571D01*
X133296144Y-103082286D01*
X133224715Y-103082286D01*
X133117572Y-103046571D01*
X133046144Y-102975143D01*
X133010429Y-102903714D01*
X132974715Y-102760857D01*
X132974715Y-102653714D01*
X133010429Y-102510857D01*
X133046144Y-102439429D01*
X133117572Y-102368000D01*
X133224715Y-102332286D01*
X133296144Y-102332286D01*
X133403287Y-102368000D01*
X133439001Y-102403714D01*
D11*
X147050000Y-142040000D02*
X145050000Y-142040000D01*
X145050000Y-139900000D02*
X147050000Y-139900000D01*
X119110000Y-144580000D02*
X117110000Y-144580000D01*
X117110000Y-142440000D02*
X119110000Y-142440000D01*
X147050000Y-144580000D02*
X145050000Y-144580000D01*
X145050000Y-142440000D02*
X147050000Y-142440000D01*
X119110000Y-140770000D02*
X117110000Y-140770000D01*
X117110000Y-138630000D02*
X119110000Y-138630000D01*
X145050000Y-137360000D02*
X147050000Y-137360000D01*
X147050000Y-139500000D02*
X145050000Y-139500000D01*
X114240000Y-109220000D02*
X114240000Y-137220000D01*
X114240000Y-137220000D02*
X116900000Y-137220000D01*
X116900000Y-137220000D02*
X116900000Y-109220000D01*
X116900000Y-109220000D02*
X114240000Y-109220000D01*
X114240000Y-107950000D02*
X114240000Y-106620000D01*
X114240000Y-106620000D02*
X115570000Y-106620000D01*
X157480000Y-142300000D02*
X167700000Y-142300000D01*
X167700000Y-142300000D02*
X167700000Y-139640000D01*
X167700000Y-139640000D02*
X157480000Y-139640000D01*
X157480000Y-139640000D02*
X157480000Y-142300000D01*
X156210000Y-142300000D02*
X154880000Y-142300000D01*
X154880000Y-142300000D02*
X154880000Y-140970000D01*
D10*
X125759771Y-140999771D02*
X132406575Y-134352967D01*
X132406575Y-134352967D02*
X140114039Y-142060431D01*
X140114039Y-142060431D02*
X132760128Y-149414342D01*
X132760128Y-149414342D02*
X125052664Y-141706878D01*
X125052664Y-141706878D02*
X125759771Y-140999771D01*
D12*
X120380000Y-132350000D02*
X120380000Y-133350000D01*
X142380000Y-132850000D02*
X142380000Y-133350000D01*
X142380000Y-132850000D02*
X142380000Y-130850000D01*
X142380000Y-130850000D02*
X140880000Y-127350000D01*
X140880000Y-127350000D02*
X140880000Y-119350000D01*
X140880000Y-119350000D02*
X129880000Y-119350000D01*
X129880000Y-119350000D02*
X129880000Y-127350000D01*
X129880000Y-127350000D02*
X120380000Y-132350000D01*
X119380000Y-133350000D02*
X119380000Y-104090000D01*
X119380000Y-104090000D02*
X145530000Y-104050000D01*
X145530000Y-104050000D02*
X145530000Y-133350000D01*
X145530000Y-133350000D02*
X119380000Y-133350000D01*
D11*
X142811500Y-136610400D02*
X145411500Y-136610400D01*
X145411500Y-136610400D02*
X145411500Y-133950400D01*
X145411500Y-133950400D02*
X142811500Y-133950400D01*
X142811500Y-133950400D02*
X142811500Y-136610400D01*
X141541500Y-136610400D02*
X140211500Y-136610400D01*
X140211500Y-136610400D02*
X140211500Y-135280400D01*
X160020000Y-134560000D02*
X157420000Y-134560000D01*
X157420000Y-134560000D02*
X157420000Y-137220000D01*
X157420000Y-137220000D02*
X160020000Y-137220000D01*
X160020000Y-137220000D02*
X160020000Y-134560000D01*
X161290000Y-134560000D02*
X162620000Y-134560000D01*
X162620000Y-134560000D02*
X162620000Y-135890000D01*
D12*
X147050000Y-132350000D02*
X147050000Y-133350000D01*
X169050000Y-132850000D02*
X169050000Y-133350000D01*
X169050000Y-132850000D02*
X169050000Y-130850000D01*
X169050000Y-130850000D02*
X167550000Y-127350000D01*
X167550000Y-127350000D02*
X167550000Y-119350000D01*
X167550000Y-119350000D02*
X156550000Y-119350000D01*
X156550000Y-119350000D02*
X156550000Y-127350000D01*
X156550000Y-127350000D02*
X147050000Y-132350000D01*
X146050000Y-133350000D02*
X146050000Y-104090000D01*
X146050000Y-104090000D02*
X172200000Y-104050000D01*
X172200000Y-104050000D02*
X172200000Y-133350000D01*
X172200000Y-133350000D02*
X146050000Y-133350000D01*
X139898572Y-138882381D02*
X139327143Y-138882381D01*
X139612857Y-138882381D02*
X139612857Y-137882381D01*
X139517619Y-138025238D01*
X139422381Y-138120476D01*
X139327143Y-138168095D01*
X140517619Y-137882381D02*
X140612858Y-137882381D01*
X140708096Y-137930000D01*
X140755715Y-137977619D01*
X140803334Y-138072857D01*
X140850953Y-138263333D01*
X140850953Y-138501429D01*
X140803334Y-138691905D01*
X140755715Y-138787143D01*
X140708096Y-138834762D01*
X140612858Y-138882381D01*
X140517619Y-138882381D01*
X140422381Y-138834762D01*
X140374762Y-138787143D01*
X140327143Y-138691905D01*
X140279524Y-138501429D01*
X140279524Y-138263333D01*
X140327143Y-138072857D01*
X140374762Y-137977619D01*
X140422381Y-137930000D01*
X140517619Y-137882381D01*
X141279524Y-138882381D02*
X141279524Y-137882381D01*
X141374762Y-138501429D02*
X141660477Y-138882381D01*
X141660477Y-138215714D02*
X141279524Y-138596667D01*
X142612858Y-138882381D02*
X142041429Y-138882381D01*
X142327143Y-138882381D02*
X142327143Y-137882381D01*
X142231905Y-138025238D01*
X142136667Y-138120476D01*
X142041429Y-138168095D01*
X122118572Y-143962381D02*
X121547143Y-143962381D01*
X121832857Y-143962381D02*
X121832857Y-142962381D01*
X121737619Y-143105238D01*
X121642381Y-143200476D01*
X121547143Y-143248095D01*
X122737619Y-142962381D02*
X122832858Y-142962381D01*
X122928096Y-143010000D01*
X122975715Y-143057619D01*
X123023334Y-143152857D01*
X123070953Y-143343333D01*
X123070953Y-143581429D01*
X123023334Y-143771905D01*
X122975715Y-143867143D01*
X122928096Y-143914762D01*
X122832858Y-143962381D01*
X122737619Y-143962381D01*
X122642381Y-143914762D01*
X122594762Y-143867143D01*
X122547143Y-143771905D01*
X122499524Y-143581429D01*
X122499524Y-143343333D01*
X122547143Y-143152857D01*
X122594762Y-143057619D01*
X122642381Y-143010000D01*
X122737619Y-142962381D01*
X123499524Y-143962381D02*
X123499524Y-142962381D01*
X123594762Y-143581429D02*
X123880477Y-143962381D01*
X123880477Y-143295714D02*
X123499524Y-143676667D01*
X124261429Y-143057619D02*
X124309048Y-143010000D01*
X124404286Y-142962381D01*
X124642382Y-142962381D01*
X124737620Y-143010000D01*
X124785239Y-143057619D01*
X124832858Y-143152857D01*
X124832858Y-143248095D01*
X124785239Y-143390952D01*
X124213810Y-143962381D01*
X124832858Y-143962381D01*
X139898572Y-143962381D02*
X139327143Y-143962381D01*
X139612857Y-143962381D02*
X139612857Y-142962381D01*
X139517619Y-143105238D01*
X139422381Y-143200476D01*
X139327143Y-143248095D01*
X140517619Y-142962381D02*
X140612858Y-142962381D01*
X140708096Y-143010000D01*
X140755715Y-143057619D01*
X140803334Y-143152857D01*
X140850953Y-143343333D01*
X140850953Y-143581429D01*
X140803334Y-143771905D01*
X140755715Y-143867143D01*
X140708096Y-143914762D01*
X140612858Y-143962381D01*
X140517619Y-143962381D01*
X140422381Y-143914762D01*
X140374762Y-143867143D01*
X140327143Y-143771905D01*
X140279524Y-143581429D01*
X140279524Y-143343333D01*
X140327143Y-143152857D01*
X140374762Y-143057619D01*
X140422381Y-143010000D01*
X140517619Y-142962381D01*
X141279524Y-143962381D02*
X141279524Y-142962381D01*
X141374762Y-143581429D02*
X141660477Y-143962381D01*
X141660477Y-143295714D02*
X141279524Y-143676667D01*
X141993810Y-142962381D02*
X142612858Y-142962381D01*
X142279524Y-143343333D01*
X142422382Y-143343333D01*
X142517620Y-143390952D01*
X142565239Y-143438571D01*
X142612858Y-143533810D01*
X142612858Y-143771905D01*
X142565239Y-143867143D01*
X142517620Y-143914762D01*
X142422382Y-143962381D01*
X142136667Y-143962381D01*
X142041429Y-143914762D01*
X141993810Y-143867143D01*
X122118572Y-140152381D02*
X121547143Y-140152381D01*
X121832857Y-140152381D02*
X121832857Y-139152381D01*
X121737619Y-139295238D01*
X121642381Y-139390476D01*
X121547143Y-139438095D01*
X122737619Y-139152381D02*
X122832858Y-139152381D01*
X122928096Y-139200000D01*
X122975715Y-139247619D01*
X123023334Y-139342857D01*
X123070953Y-139533333D01*
X123070953Y-139771429D01*
X123023334Y-139961905D01*
X122975715Y-140057143D01*
X122928096Y-140104762D01*
X122832858Y-140152381D01*
X122737619Y-140152381D01*
X122642381Y-140104762D01*
X122594762Y-140057143D01*
X122547143Y-139961905D01*
X122499524Y-139771429D01*
X122499524Y-139533333D01*
X122547143Y-139342857D01*
X122594762Y-139247619D01*
X122642381Y-139200000D01*
X122737619Y-139152381D01*
X123499524Y-140152381D02*
X123499524Y-139152381D01*
X123594762Y-139771429D02*
X123880477Y-140152381D01*
X123880477Y-139485714D02*
X123499524Y-139866667D01*
X124737620Y-139485714D02*
X124737620Y-140152381D01*
X124499524Y-139104762D02*
X124261429Y-139819048D01*
X124880477Y-139819048D01*
X139898572Y-141422381D02*
X139327143Y-141422381D01*
X139612857Y-141422381D02*
X139612857Y-140422381D01*
X139517619Y-140565238D01*
X139422381Y-140660476D01*
X139327143Y-140708095D01*
X140517619Y-140422381D02*
X140612858Y-140422381D01*
X140708096Y-140470000D01*
X140755715Y-140517619D01*
X140803334Y-140612857D01*
X140850953Y-140803333D01*
X140850953Y-141041429D01*
X140803334Y-141231905D01*
X140755715Y-141327143D01*
X140708096Y-141374762D01*
X140612858Y-141422381D01*
X140517619Y-141422381D01*
X140422381Y-141374762D01*
X140374762Y-141327143D01*
X140327143Y-141231905D01*
X140279524Y-141041429D01*
X140279524Y-140803333D01*
X140327143Y-140612857D01*
X140374762Y-140517619D01*
X140422381Y-140470000D01*
X140517619Y-140422381D01*
X141279524Y-141422381D02*
X141279524Y-140422381D01*
X141374762Y-141041429D02*
X141660477Y-141422381D01*
X141660477Y-140755714D02*
X141279524Y-141136667D01*
X142565239Y-140422381D02*
X142089048Y-140422381D01*
X142041429Y-140898571D01*
X142089048Y-140850952D01*
X142184286Y-140803333D01*
X142422382Y-140803333D01*
X142517620Y-140850952D01*
X142565239Y-140898571D01*
X142612858Y-140993810D01*
X142612858Y-141231905D01*
X142565239Y-141327143D01*
X142517620Y-141374762D01*
X142422382Y-141422381D01*
X142184286Y-141422381D01*
X142089048Y-141374762D01*
X142041429Y-141327143D01*
X115236667Y-105072381D02*
X115236667Y-105786667D01*
X115189047Y-105929524D01*
X115093809Y-106024762D01*
X114950952Y-106072381D01*
X114855714Y-106072381D01*
X116236667Y-106072381D02*
X115665238Y-106072381D01*
X115950952Y-106072381D02*
X115950952Y-105072381D01*
X115855714Y-105215238D01*
X115760476Y-105310476D01*
X115665238Y-105358095D01*
X169013334Y-140422381D02*
X169013334Y-141136667D01*
X168965714Y-141279524D01*
X168870476Y-141374762D01*
X168727619Y-141422381D01*
X168632381Y-141422381D01*
X169632381Y-141422381D02*
X169537143Y-141374762D01*
X169489524Y-141327143D01*
X169441905Y-141231905D01*
X169441905Y-140946190D01*
X169489524Y-140850952D01*
X169537143Y-140803333D01*
X169632381Y-140755714D01*
X169775239Y-140755714D01*
X169870477Y-140803333D01*
X169918096Y-140850952D01*
X169965715Y-140946190D01*
X169965715Y-141231905D01*
X169918096Y-141327143D01*
X169870477Y-141374762D01*
X169775239Y-141422381D01*
X169632381Y-141422381D01*
X170299048Y-140755714D02*
X170537143Y-141422381D01*
X170775239Y-140755714D02*
X170537143Y-141422381D01*
X170441905Y-141660476D01*
X170394286Y-141708095D01*
X170299048Y-141755714D01*
X171680001Y-141422381D02*
X171108572Y-141422381D01*
X171394286Y-141422381D02*
X171394286Y-140422381D01*
X171299048Y-140565238D01*
X171203810Y-140660476D01*
X171108572Y-140708095D01*
X137088632Y-148062421D02*
X137223319Y-147995077D01*
X137391678Y-147826718D01*
X137425350Y-147725703D01*
X137425350Y-147658359D01*
X137391678Y-147557344D01*
X137324335Y-147490001D01*
X137223320Y-147456329D01*
X137155976Y-147456329D01*
X137054960Y-147490000D01*
X136886601Y-147591016D01*
X136785586Y-147624688D01*
X136718243Y-147624688D01*
X136617227Y-147591016D01*
X136549884Y-147523673D01*
X136516212Y-147422657D01*
X136516212Y-147355314D01*
X136549884Y-147254299D01*
X136718243Y-147085940D01*
X136852930Y-147018596D01*
X137054960Y-146749222D02*
X137930426Y-147287971D01*
X137560037Y-146648206D01*
X138199800Y-147018596D01*
X137661052Y-146143131D01*
X139007922Y-146210474D02*
X138603861Y-146614535D01*
X138805891Y-146412505D02*
X138098784Y-145705398D01*
X138132456Y-145873757D01*
X138132456Y-146008444D01*
X138098784Y-146109459D01*
X131231431Y-142248992D02*
X130894713Y-142585710D01*
X131197758Y-142956099D01*
X131197758Y-142888755D01*
X131231430Y-142787740D01*
X131399789Y-142619381D01*
X131500804Y-142585709D01*
X131568148Y-142585709D01*
X131669164Y-142619382D01*
X131837522Y-142787740D01*
X131871194Y-142888755D01*
X131871194Y-142956099D01*
X131837522Y-143057114D01*
X131669163Y-143225473D01*
X131568148Y-143259145D01*
X131500804Y-143259145D01*
X131736507Y-142215320D02*
X132342598Y-142552038D01*
X132140568Y-142080633D01*
X132611973Y-142282664D01*
X132275255Y-141676572D01*
X132948690Y-141878603D02*
X133049705Y-141844931D01*
X133184392Y-141710245D01*
X133218064Y-141609229D01*
X133184392Y-141508214D01*
X133150721Y-141474542D01*
X133049706Y-141440870D01*
X132948690Y-141474543D01*
X132847675Y-141575558D01*
X132746659Y-141609229D01*
X132645644Y-141575557D01*
X132611972Y-141541885D01*
X132578300Y-141440870D01*
X132611972Y-141339855D01*
X132712987Y-141238840D01*
X132814003Y-141205167D01*
X133049705Y-140902122D02*
X133655797Y-141238840D01*
X133453766Y-140767434D01*
X133925171Y-140969465D01*
X133588453Y-140363374D01*
X128544426Y-142248993D02*
X128140364Y-142653054D01*
X128342395Y-142451024D02*
X127635288Y-141743917D01*
X127668960Y-141912275D01*
X127668960Y-142046962D01*
X127635288Y-142147978D01*
X131118095Y-131302381D02*
X131118095Y-132111905D01*
X131165714Y-132207143D01*
X131213333Y-132254762D01*
X131308571Y-132302381D01*
X131499048Y-132302381D01*
X131594286Y-132254762D01*
X131641905Y-132207143D01*
X131689524Y-132111905D01*
X131689524Y-131302381D01*
X132689524Y-132302381D02*
X132118095Y-132302381D01*
X132403809Y-132302381D02*
X132403809Y-131302381D01*
X132308571Y-131445238D01*
X132213333Y-131540476D01*
X132118095Y-131588095D01*
X128058095Y-106517619D02*
X128105714Y-106470000D01*
X128200952Y-106422381D01*
X128439048Y-106422381D01*
X128534286Y-106470000D01*
X128581905Y-106517619D01*
X128629524Y-106612857D01*
X128629524Y-106708095D01*
X128581905Y-106850952D01*
X128010476Y-107422381D01*
X128629524Y-107422381D01*
X129486667Y-106755714D02*
X129486667Y-107422381D01*
X129248571Y-106374762D02*
X129010476Y-107089048D01*
X129629524Y-107089048D01*
X130200952Y-106422381D02*
X130296191Y-106422381D01*
X130391429Y-106470000D01*
X130439048Y-106517619D01*
X130486667Y-106612857D01*
X130534286Y-106803333D01*
X130534286Y-107041429D01*
X130486667Y-107231905D01*
X130439048Y-107327143D01*
X130391429Y-107374762D01*
X130296191Y-107422381D01*
X130200952Y-107422381D01*
X130105714Y-107374762D01*
X130058095Y-107327143D01*
X130010476Y-107231905D01*
X129962857Y-107041429D01*
X129962857Y-106803333D01*
X130010476Y-106612857D01*
X130058095Y-106517619D01*
X130105714Y-106470000D01*
X130200952Y-106422381D01*
X130867619Y-107422381D02*
X131391429Y-106755714D01*
X130867619Y-106755714D02*
X131391429Y-107422381D01*
X131724762Y-106517619D02*
X131772381Y-106470000D01*
X131867619Y-106422381D01*
X132105715Y-106422381D01*
X132200953Y-106470000D01*
X132248572Y-106517619D01*
X132296191Y-106612857D01*
X132296191Y-106708095D01*
X132248572Y-106850952D01*
X131677143Y-107422381D01*
X132296191Y-107422381D01*
X133153334Y-106755714D02*
X133153334Y-107422381D01*
X132915238Y-106374762D02*
X132677143Y-107089048D01*
X133296191Y-107089048D01*
X133867619Y-106422381D02*
X133962858Y-106422381D01*
X134058096Y-106470000D01*
X134105715Y-106517619D01*
X134153334Y-106612857D01*
X134200953Y-106803333D01*
X134200953Y-107041429D01*
X134153334Y-107231905D01*
X134105715Y-107327143D01*
X134058096Y-107374762D01*
X133962858Y-107422381D01*
X133867619Y-107422381D01*
X133772381Y-107374762D01*
X133724762Y-107327143D01*
X133677143Y-107231905D01*
X133629524Y-107041429D01*
X133629524Y-106803333D01*
X133677143Y-106612857D01*
X133724762Y-106517619D01*
X133772381Y-106470000D01*
X133867619Y-106422381D01*
X134486667Y-106422381D02*
X135058096Y-106422381D01*
X134772381Y-107422381D02*
X134772381Y-106422381D01*
X135724763Y-106898571D02*
X135391429Y-106898571D01*
X135391429Y-107422381D02*
X135391429Y-106422381D01*
X135867620Y-106422381D01*
X136105715Y-106422381D02*
X136677144Y-106422381D01*
X136391429Y-107422381D02*
X136391429Y-106422381D01*
X107402381Y-137493333D02*
X108116667Y-137493333D01*
X108259524Y-137540953D01*
X108354762Y-137636191D01*
X108402381Y-137779048D01*
X108402381Y-137874286D01*
X107497619Y-137064762D02*
X107450000Y-137017143D01*
X107402381Y-136921905D01*
X107402381Y-136683809D01*
X107450000Y-136588571D01*
X107497619Y-136540952D01*
X107592857Y-136493333D01*
X107688095Y-136493333D01*
X107830952Y-136540952D01*
X108402381Y-137112381D01*
X108402381Y-136493333D01*
X140682909Y-132773681D02*
X140682909Y-131773681D01*
X141063862Y-131773681D01*
X141159100Y-131821300D01*
X141206719Y-131868919D01*
X141254338Y-131964157D01*
X141254338Y-132107014D01*
X141206719Y-132202252D01*
X141159100Y-132249871D01*
X141063862Y-132297490D01*
X140682909Y-132297490D01*
X141825766Y-132773681D02*
X141730528Y-132726062D01*
X141682909Y-132678443D01*
X141635290Y-132583205D01*
X141635290Y-132297490D01*
X141682909Y-132202252D01*
X141730528Y-132154633D01*
X141825766Y-132107014D01*
X141968624Y-132107014D01*
X142063862Y-132154633D01*
X142111481Y-132202252D01*
X142159100Y-132297490D01*
X142159100Y-132583205D01*
X142111481Y-132678443D01*
X142063862Y-132726062D01*
X141968624Y-132773681D01*
X141825766Y-132773681D01*
X142492433Y-132107014D02*
X142682909Y-132773681D01*
X142873386Y-132297490D01*
X143063862Y-132773681D01*
X143254338Y-132107014D01*
X144016243Y-132726062D02*
X143921005Y-132773681D01*
X143730528Y-132773681D01*
X143635290Y-132726062D01*
X143587671Y-132630824D01*
X143587671Y-132249871D01*
X143635290Y-132154633D01*
X143730528Y-132107014D01*
X143921005Y-132107014D01*
X144016243Y-132154633D01*
X144063862Y-132249871D01*
X144063862Y-132345110D01*
X143587671Y-132440348D01*
X144492433Y-132773681D02*
X144492433Y-132107014D01*
X144492433Y-132297490D02*
X144540052Y-132202252D01*
X144587671Y-132154633D01*
X144682909Y-132107014D01*
X144778148Y-132107014D01*
X174712381Y-141303333D02*
X175426667Y-141303333D01*
X175569524Y-141350953D01*
X175664762Y-141446191D01*
X175712381Y-141589048D01*
X175712381Y-141684286D01*
X174712381Y-140922381D02*
X174712381Y-140303333D01*
X175093333Y-140636667D01*
X175093333Y-140493809D01*
X175140952Y-140398571D01*
X175188571Y-140350952D01*
X175283810Y-140303333D01*
X175521905Y-140303333D01*
X175617143Y-140350952D01*
X175664762Y-140398571D01*
X175712381Y-140493809D01*
X175712381Y-140779524D01*
X175664762Y-140874762D01*
X175617143Y-140922381D01*
X163266667Y-136342381D02*
X163266667Y-135342381D01*
X163504762Y-135342381D01*
X163647620Y-135390000D01*
X163742858Y-135485238D01*
X163790477Y-135580476D01*
X163838096Y-135770952D01*
X163838096Y-135913810D01*
X163790477Y-136104286D01*
X163742858Y-136199524D01*
X163647620Y-136294762D01*
X163504762Y-136342381D01*
X163266667Y-136342381D01*
X164266667Y-136342381D02*
X164266667Y-135675714D01*
X164266667Y-135342381D02*
X164219048Y-135390000D01*
X164266667Y-135437619D01*
X164314286Y-135390000D01*
X164266667Y-135342381D01*
X164266667Y-135437619D01*
X164695238Y-136294762D02*
X164790476Y-136342381D01*
X164980952Y-136342381D01*
X165076191Y-136294762D01*
X165123810Y-136199524D01*
X165123810Y-136151905D01*
X165076191Y-136056667D01*
X164980952Y-136009048D01*
X164838095Y-136009048D01*
X164742857Y-135961429D01*
X164695238Y-135866190D01*
X164695238Y-135818571D01*
X164742857Y-135723333D01*
X164838095Y-135675714D01*
X164980952Y-135675714D01*
X165076191Y-135723333D01*
X165552381Y-135675714D02*
X165552381Y-136675714D01*
X165552381Y-135723333D02*
X165647619Y-135675714D01*
X165838096Y-135675714D01*
X165933334Y-135723333D01*
X165980953Y-135770952D01*
X166028572Y-135866190D01*
X166028572Y-136151905D01*
X165980953Y-136247143D01*
X165933334Y-136294762D01*
X165838096Y-136342381D01*
X165647619Y-136342381D01*
X165552381Y-136294762D01*
X166409524Y-135437619D02*
X166457143Y-135390000D01*
X166552381Y-135342381D01*
X166790477Y-135342381D01*
X166885715Y-135390000D01*
X166933334Y-135437619D01*
X166980953Y-135532857D01*
X166980953Y-135628095D01*
X166933334Y-135770952D01*
X166361905Y-136342381D01*
X166980953Y-136342381D01*
X157788095Y-131302381D02*
X157788095Y-132111905D01*
X157835714Y-132207143D01*
X157883333Y-132254762D01*
X157978571Y-132302381D01*
X158169048Y-132302381D01*
X158264286Y-132254762D01*
X158311905Y-132207143D01*
X158359524Y-132111905D01*
X158359524Y-131302381D01*
X158788095Y-131397619D02*
X158835714Y-131350000D01*
X158930952Y-131302381D01*
X159169048Y-131302381D01*
X159264286Y-131350000D01*
X159311905Y-131397619D01*
X159359524Y-131492857D01*
X159359524Y-131588095D01*
X159311905Y-131730952D01*
X158740476Y-132302381D01*
X159359524Y-132302381D01*
X154728095Y-106517619D02*
X154775714Y-106470000D01*
X154870952Y-106422381D01*
X155109048Y-106422381D01*
X155204286Y-106470000D01*
X155251905Y-106517619D01*
X155299524Y-106612857D01*
X155299524Y-106708095D01*
X155251905Y-106850952D01*
X154680476Y-107422381D01*
X155299524Y-107422381D01*
X156156667Y-106755714D02*
X156156667Y-107422381D01*
X155918571Y-106374762D02*
X155680476Y-107089048D01*
X156299524Y-107089048D01*
X156870952Y-106422381D02*
X156966191Y-106422381D01*
X157061429Y-106470000D01*
X157109048Y-106517619D01*
X157156667Y-106612857D01*
X157204286Y-106803333D01*
X157204286Y-107041429D01*
X157156667Y-107231905D01*
X157109048Y-107327143D01*
X157061429Y-107374762D01*
X156966191Y-107422381D01*
X156870952Y-107422381D01*
X156775714Y-107374762D01*
X156728095Y-107327143D01*
X156680476Y-107231905D01*
X156632857Y-107041429D01*
X156632857Y-106803333D01*
X156680476Y-106612857D01*
X156728095Y-106517619D01*
X156775714Y-106470000D01*
X156870952Y-106422381D01*
X157537619Y-107422381D02*
X158061429Y-106755714D01*
X157537619Y-106755714D02*
X158061429Y-107422381D01*
X158394762Y-106517619D02*
X158442381Y-106470000D01*
X158537619Y-106422381D01*
X158775715Y-106422381D01*
X158870953Y-106470000D01*
X158918572Y-106517619D01*
X158966191Y-106612857D01*
X158966191Y-106708095D01*
X158918572Y-106850952D01*
X158347143Y-107422381D01*
X158966191Y-107422381D01*
X159823334Y-106755714D02*
X159823334Y-107422381D01*
X159585238Y-106374762D02*
X159347143Y-107089048D01*
X159966191Y-107089048D01*
X160537619Y-106422381D02*
X160632858Y-106422381D01*
X160728096Y-106470000D01*
X160775715Y-106517619D01*
X160823334Y-106612857D01*
X160870953Y-106803333D01*
X160870953Y-107041429D01*
X160823334Y-107231905D01*
X160775715Y-107327143D01*
X160728096Y-107374762D01*
X160632858Y-107422381D01*
X160537619Y-107422381D01*
X160442381Y-107374762D01*
X160394762Y-107327143D01*
X160347143Y-107231905D01*
X160299524Y-107041429D01*
X160299524Y-106803333D01*
X160347143Y-106612857D01*
X160394762Y-106517619D01*
X160442381Y-106470000D01*
X160537619Y-106422381D01*
X161156667Y-106422381D02*
X161728096Y-106422381D01*
X161442381Y-107422381D02*
X161442381Y-106422381D01*
X162394763Y-106898571D02*
X162061429Y-106898571D01*
X162061429Y-107422381D02*
X162061429Y-106422381D01*
X162537620Y-106422381D01*
X162775715Y-106422381D02*
X163347144Y-106422381D01*
X163061429Y-107422381D02*
X163061429Y-106422381D01*
M02*
